<svg width="28" height="28" viewBox="0 0 28 28" fill="none" xmlns="http://www.w3.org/2000/svg">
<path fill-rule="evenodd" clip-rule="evenodd" d="M6.39276 4.15167C5.15674 4.15167 4.15155 5.15686 4.15155 6.39288V17.5383C4.15155 18.7742 5.15674 19.7793 6.39276 19.7793H11.121L12.6759 22.8894C12.9706 23.4787 13.4474 23.8486 14 23.8486C14.5526 23.8486 15.0295 23.4787 15.3241 22.8894L16.8792 19.7793H21.6075C22.8433 19.7793 23.8485 18.7741 23.8485 17.5383V6.39288C23.8485 5.15687 22.8433 4.15167 21.6075 4.15167H6.39276ZM5.59094 6.39288C5.59094 5.95085 5.95072 5.59107 6.39276 5.59107H21.6075C22.0493 5.59107 22.4091 5.95083 22.4091 6.39288V17.5383C22.4091 17.9802 22.0493 18.3399 21.6075 18.3399H16.4345C16.1618 18.3399 15.9127 18.4941 15.7907 18.7378L14.0367 22.2456C14.024 22.2711 14.0117 22.2934 14 22.3129C13.9884 22.2934 13.9761 22.2711 13.9633 22.2456L12.2094 18.7378C12.0875 18.494 11.8382 18.3399 11.5657 18.3399H6.39276C5.95071 18.3399 5.59094 17.9801 5.59094 17.5383V6.39288Z" fill="black"/>
</svg>
