<svg width="36" height="36" viewBox="0 0 36 36" fill="none" xmlns="http://www.w3.org/2000/svg">
<path fill-rule="evenodd" clip-rule="evenodd" d="M9.43323 0.211824C9.15032 -0.070608 8.69161 -0.070608 8.4087 0.211824C8.12578 0.494256 8.12578 0.952169 8.4087 1.2346L14.6287 7.44391L11.9391 7.8274L11.4269 11.4073L7.84087 11.9186L7.45672 14.6036L1.23673 8.39425C0.953808 8.11182 0.495107 8.11182 0.212189 8.39425C-0.0707295 8.67668 -0.0707295 9.1346 0.212189 9.41703L7.45161 16.644C7.52635 16.7202 7.61832 16.7805 7.72251 16.818L21.0281 21.9266C21.2953 22.0292 21.598 21.9651 21.8004 21.763C22.0029 21.5609 22.0671 21.2587 21.9643 20.992L16.8469 7.70924C16.8093 7.60523 16.749 7.51342 16.6727 7.43881L9.43323 0.211824ZM13.2198 9.1059L15.6966 8.75276L18.1661 15.1627L15.1888 18.1349L8.76782 15.6696L9.12157 13.1971L12.7076 12.6858L13.2198 9.1059ZM16.6687 18.7031L20.0269 19.9925L18.7353 16.6401L16.6687 18.7031Z" fill="black"/>
<path d="M24.4881 17.3573H27.5536L28.2676 19.3617L29.1596 19.7305L31.0842 18.8172L33.2518 20.9811L32.337 22.9024L32.7064 23.7929L34.7143 24.5057V27.5659L32.7064 28.2787L32.337 29.1691L33.2518 31.0905L31.0842 33.2544L29.1596 32.3411L28.2676 32.7099L27.5536 34.7143H24.4881L23.7741 32.7099L22.8821 32.3411L20.9575 33.2544L18.7898 31.0905L19.7047 29.1691L19.3352 28.2787L17.3273 27.566V24.5057L19.6386 23.6853C20.0155 23.5514 20.4298 23.748 20.5639 24.1244C20.6979 24.5007 20.501 24.9143 20.124 25.0481L18.7763 25.5265V26.5452L20.4274 27.1313L21.2898 29.2095L20.5374 30.7895L21.2589 31.5098L22.8417 30.7587L24.9235 31.6196L25.5106 33.2679H26.531L27.1182 31.6196L29.2 30.7587L30.7827 31.5098L31.5043 30.7895L30.7519 29.2095L31.6143 27.1312L33.2654 26.5451V25.5265L31.6143 24.9403L30.7519 22.8621L31.5043 21.2821L30.7827 20.5618L29.2 21.3128L27.1182 20.452L26.531 18.8037H25.5106L25.0314 20.1491C24.8973 20.5255 24.4831 20.7221 24.1061 20.5882C23.7291 20.4544 23.5322 20.0408 23.6662 19.6645L24.4881 17.3573Z" fill="black"/>
<path fill-rule="evenodd" clip-rule="evenodd" d="M23.1834 26.006C23.1834 24.4084 24.4808 23.1132 26.0812 23.1132C27.6817 23.1132 28.9791 24.4084 28.9791 26.006C28.9791 27.6037 27.6817 28.8989 26.0812 28.8989C24.4808 28.8989 23.1834 27.6037 23.1834 26.006ZM26.0812 24.5596C25.281 24.5596 24.6323 25.2072 24.6323 26.006C24.6323 26.8049 25.281 27.4525 26.0812 27.4525C26.8814 27.4525 27.5301 26.8049 27.5301 26.006C27.5301 25.2072 26.8814 24.5596 26.0812 24.5596Z" fill="black"/>
</svg>
