<svg width="36" height="36" viewBox="0 0 36 36" fill="none" xmlns="http://www.w3.org/2000/svg">
<path d="M13.7726 17.3571C13.8736 17.3571 13.8736 17.3571 13.9746 17.3571L15.893 14.7107C15.2872 15.0161 14.5804 15.3214 13.7726 15.3214C11.5512 15.3214 9.73373 13.4893 9.73373 11.25C9.73373 9.01071 11.5512 7.17857 13.7726 7.17857C15.994 7.17857 17.8115 9.01071 17.8115 11.25C17.8115 11.5554 17.8115 11.8607 17.7105 12.1661L19.629 9.51964C18.8212 6.975 16.4989 5.14285 13.7726 5.14285C10.4405 5.14285 7.71428 7.89107 7.71428 11.25C7.71428 14.6089 10.4405 17.3571 13.7726 17.3571ZM21.4465 17.3571L19.9319 19.4946C20.2348 19.3929 20.5378 19.3929 20.8407 19.3929C23.0621 19.3929 24.8796 21.225 24.8796 23.4643C24.8796 25.7036 23.0621 27.5357 20.8407 27.5357C18.7203 27.5357 17.0037 25.9071 16.9028 23.8714L15.3882 26.0089C16.2969 28.1464 18.4173 29.5714 20.9417 29.5714C24.2737 29.5714 27 26.8232 27 23.4643C26.899 20.3089 24.4757 17.6625 21.4465 17.3571ZM24.4757 5.95714L9.43081 27.2304L11.0464 28.4518L26.1922 7.17857L24.4757 5.95714Z" fill="#1E232D"/>
</svg>
