<svg width="36" height="36" viewBox="0 0 36 36" fill="none" xmlns="http://www.w3.org/2000/svg">
<path d="M32.1428 8.78674V14.1437C32.1428 14.7365 31.6558 15.2144 31.0556 15.2144C30.4536 15.2144 29.9683 14.7357 29.9683 14.1437V11.3495L22.0834 20.2067C21.6962 20.6367 21.0403 20.6933 20.5851 20.3364L15.9063 16.649L5.71431 26.6858C5.50128 26.8955 5.22371 27 4.94527 27C4.66682 27 4.38837 26.8955 4.17534 26.6858C3.75104 26.2688 3.75104 25.5898 4.17534 25.172L15.0542 14.458C15.4493 14.0715 16.0725 14.0401 16.5056 14.3779L21.1314 18.0235L28.4037 9.85744H25.6166C25.0146 9.85744 24.5302 9.37693 24.5302 8.78587C24.5302 8.19306 25.0173 7.71429 25.6166 7.71429H31.0573C31.6558 7.71516 32.1428 8.19481 32.1428 8.78674Z" fill="black"/>
</svg>
