<svg width="36" height="36" viewBox="0 0 36 36" fill="none" xmlns="http://www.w3.org/2000/svg">
<path d="M10.558 6.42748C13.0964 4.79399 16.1017 4.04084 19.1104 4.28416C21.4842 4.47612 23.7561 5.27991 25.7108 6.60269L23.9182 6.85637C23.4621 6.92091 23.1448 7.34293 23.2093 7.79897C23.2738 8.25502 23.6958 8.5724 24.1519 8.50786L27.8758 7.98087C28.0653 7.95567 28.2471 7.86553 28.3851 7.71234C28.5406 7.53971 28.6106 7.31997 28.5979 7.10502C28.5964 7.079 28.5937 7.05304 28.5897 7.02724L28.0662 3.31208C28.0019 2.856 27.5801 2.53837 27.124 2.60263C26.668 2.6669 26.3503 3.08872 26.4146 3.54481L26.6514 5.22521C24.4583 3.73972 21.9088 2.83707 19.2449 2.62164C15.8713 2.34882 12.5016 3.19329 9.65541 5.02486C9.26809 5.2741 9.15616 5.79014 9.4054 6.17747C9.65465 6.56479 10.1707 6.67672 10.558 6.42748Z" fill="black"/>
<path d="M6.60267 10.2892L6.85636 12.0818C6.9209 12.5379 7.34292 12.8553 7.79896 12.7907C8.25501 12.7262 8.57239 12.3042 8.50785 11.8481L7.98085 8.12415C7.95563 7.93468 7.86549 7.75285 7.71233 7.61491C7.61095 7.52359 7.49332 7.46175 7.36996 7.42882C7.28388 7.40573 7.19291 7.39621 7.09987 7.40238C7.07574 7.40396 7.05167 7.40658 7.02774 7.41023L3.31207 7.93379C2.85599 7.99806 2.53836 8.41989 2.60262 8.87597C2.66689 9.33205 3.08871 9.64969 3.5448 9.58542L5.2252 9.34864C3.73971 11.5417 2.83706 14.0912 2.62163 16.7551C2.34881 20.1287 3.19328 23.4984 5.02484 26.3446C5.27409 26.7319 5.79013 26.8439 6.17745 26.5946C6.56478 26.3454 6.67671 25.8293 6.42747 25.442C4.79398 22.9036 4.04083 19.8983 4.28415 16.8896C4.47611 14.5158 5.2799 12.2439 6.60267 10.2892Z" fill="black"/>
<path d="M14.2471 16.3321C13.7865 16.3321 13.4132 16.7055 13.4132 17.166C13.4132 17.6266 13.7865 18 14.2471 18H21.7529C22.2135 18 22.5868 17.6266 22.5868 17.166C22.5868 16.7055 22.2135 16.3321 21.7529 16.3321H14.2471Z" fill="black"/>
<path d="M13.4132 14.2471C13.4132 13.7866 13.7865 13.4132 14.2471 13.4132H18C18.4606 13.4132 18.834 13.7866 18.834 14.2471C18.834 14.7077 18.4606 15.0811 18 15.0811H14.2471C13.7865 15.0811 13.4132 14.7077 13.4132 14.2471Z" fill="black"/>
<path d="M14.2471 19.251C13.7865 19.251 13.4132 19.6243 13.4132 20.0849C13.4132 20.5455 13.7865 20.9189 14.2471 20.9189H21.7529C22.2135 20.9189 22.5868 20.5455 22.5868 20.0849C22.5868 19.6243 22.2135 19.251 21.7529 19.251H14.2471Z" fill="black"/>
<path fill-rule="evenodd" clip-rule="evenodd" d="M13.6217 10.0773C12.6816 10.0773 11.7801 10.4507 11.1154 11.1154C10.4507 11.7801 10.0773 12.6816 10.0773 13.6217V24.2548C10.0773 24.476 10.1651 24.6881 10.3215 24.8445L11.1555 25.6785C11.4812 26.0042 12.0092 26.0042 12.3349 25.6785L12.9962 25.0172L13.6574 25.6785C13.9831 26.0042 14.5112 26.0042 14.8368 25.6785L15.4981 25.0172L16.1593 25.6785C16.485 26.0042 17.0131 26.0042 17.3387 25.6785L18 25.0172L18.6613 25.6785C18.9869 26.0042 19.515 26.0042 19.8407 25.6785L20.5019 25.0172L21.1632 25.6785C21.4888 26.0042 22.0169 26.0042 22.3426 25.6785L23.0038 25.0172L23.6651 25.6785C23.9908 26.0042 24.5188 26.0042 24.8445 25.6785L25.6785 24.8445C25.8349 24.6881 25.9227 24.476 25.9227 24.2548V13.6217C25.9227 12.6816 25.5493 11.7801 24.8846 11.1154C24.2199 10.4507 23.3184 10.0773 22.3783 10.0773H13.6217ZM12.2948 12.2948C12.6467 11.9429 13.124 11.7452 13.6217 11.7452H22.3783C22.876 11.7452 23.3533 11.9429 23.7052 12.2948C24.0571 12.6467 24.2548 13.124 24.2548 13.6217V23.9094L23.5935 23.2481C23.2678 22.9224 22.7398 22.9224 22.4141 23.2481L21.7529 23.9094L21.0916 23.2481C20.7659 22.9224 20.2379 22.9224 19.9122 23.2481L19.251 23.9094L18.5897 23.2481C18.264 22.9224 17.736 22.9224 17.4103 23.2481L16.749 23.9094L16.0878 23.2481C15.7621 22.9224 15.2341 22.9224 14.9084 23.2481L14.2471 23.9094L13.5859 23.2481C13.2602 22.9224 12.7322 22.9224 12.4065 23.2481L11.7452 23.9094V13.6217C11.7452 13.124 11.9429 12.6467 12.2948 12.2948Z" fill="black"/>
<path d="M12.7907 28.201C12.8552 28.6571 12.5379 29.0791 12.0818 29.1436L10.2892 29.3973C12.2439 30.7201 14.5158 31.5239 16.8896 31.7159C19.8983 31.9592 22.9036 31.206 25.442 29.5725C25.8293 29.3233 26.3454 29.4352 26.5946 29.8226C26.8438 30.2099 26.7319 30.7259 26.3446 30.9752C23.4984 32.8067 20.1287 33.6512 16.7551 33.3784C14.0912 33.163 11.5417 32.2603 9.34863 30.7748L9.58541 32.4552C9.64968 32.9113 9.33204 33.3331 8.87596 33.3974C8.41988 33.4617 7.99805 33.144 7.93378 32.6879L7.41023 28.9724C7.40657 28.9484 7.40395 28.9243 7.40237 28.9001C7.39618 28.8067 7.40579 28.7154 7.42908 28.6291C7.46207 28.5061 7.52383 28.3888 7.61489 28.2877L7.61934 28.2828C7.6424 28.2576 7.66704 28.2337 7.69311 28.2114C7.74848 28.1641 7.81036 28.1237 7.87755 28.0919C7.91252 28.0753 7.94893 28.0611 7.98662 28.0494C8.03135 28.0355 8.07706 28.0255 8.12323 28.0193L11.8481 27.4922C12.3042 27.4276 12.7262 27.745 12.7907 28.201Z" fill="black"/>
<path d="M28.201 23.2093C28.6571 23.1448 29.0791 23.4621 29.1436 23.9182L29.3973 25.7108C30.7201 23.7561 31.5239 21.4842 31.7159 19.1104C31.9592 16.1017 31.206 13.0964 29.5725 10.558C29.3233 10.1707 29.4352 9.65466 29.8225 9.40541C30.2099 9.15617 30.7259 9.2681 30.9752 9.65543C32.8067 12.5016 33.6512 15.8713 33.3784 19.2449C33.1629 21.9088 32.2603 24.4584 30.7748 26.6514L32.4552 26.4146C32.9113 26.3503 33.3331 26.668 33.3974 27.124C33.4616 27.5801 33.144 28.002 32.6879 28.0662L28.9731 28.5897C28.9461 28.5938 28.9189 28.5966 28.8917 28.5981C28.6778 28.6099 28.4594 28.5398 28.2877 28.3851C28.1346 28.2472 28.0445 28.0656 28.0192 27.8762L27.4921 24.1519C27.4276 23.6958 27.745 23.2738 28.201 23.2093Z" fill="black"/>
</svg>
