<svg width="18" height="18" viewBox="0 0 18 18" fill="none" xmlns="http://www.w3.org/2000/svg">
<path d="M15.4914 13.8766C15.1205 13.0105 14.5822 12.2238 13.9066 11.5604C13.2331 10.895 12.4352 10.3645 11.5571 9.99813C11.5492 9.99426 11.5413 9.99232 11.5335 9.98844C12.7584 9.11623 13.5547 7.69548 13.5547 6.09254C13.5547 3.43712 11.3722 1.28564 8.67858 1.28564C5.98492 1.28564 3.80247 3.43712 3.80247 6.09254C3.80247 7.69548 4.59877 9.11622 5.8237 9.99038C5.81583 9.99426 5.80797 9.9962 5.8001 10.0001C4.91926 10.3664 4.12886 10.8917 3.45053 11.5623C2.77556 12.2263 2.23741 13.0129 1.86579 13.8785C1.50072 14.726 1.30382 15.6347 1.28577 16.5553C1.28525 16.576 1.28893 16.5965 1.2966 16.6158C1.30426 16.6351 1.31577 16.6526 1.33043 16.6674C1.34509 16.6822 1.3626 16.694 1.38195 16.7021C1.40129 16.7101 1.42207 16.7142 1.44306 16.7142H2.62277C2.70928 16.7142 2.77809 16.6464 2.78006 16.563C2.81938 15.0667 3.4289 13.6653 4.50636 12.6032C5.62118 11.5042 7.10171 10.8994 8.67858 10.8994C10.2554 10.8994 11.736 11.5042 12.8508 12.6032C13.9283 13.6653 14.5378 15.0667 14.5771 16.563C14.5791 16.6483 14.6479 16.7142 14.7344 16.7142H15.9141C15.9351 16.7142 15.9559 16.7101 15.9752 16.7021C15.9946 16.694 16.0121 16.6822 16.0267 16.6674C16.0414 16.6526 16.0529 16.6351 16.0606 16.6158C16.0682 16.5965 16.0719 16.576 16.0714 16.5553C16.0517 15.6288 15.8571 14.7275 15.4914 13.8766V13.8766ZM8.67858 9.42635C7.7761 9.42635 6.92672 9.0794 6.28771 8.44946C5.64871 7.81953 5.29676 6.9822 5.29676 6.09254C5.29676 5.20287 5.64871 4.36554 6.28771 3.73561C6.92672 3.10567 7.7761 2.75872 8.67858 2.75872C9.58105 2.75872 10.4304 3.10567 11.0694 3.73561C11.7084 4.36554 12.0604 5.20287 12.0604 6.09254C12.0604 6.9822 11.7084 7.81953 11.0694 8.44946C10.4304 9.0794 9.58105 9.42635 8.67858 9.42635Z" fill="black"/>
</svg>
