<svg width="40" height="28" viewBox="0 0 40 28" fill="none" xmlns="http://www.w3.org/2000/svg">
<g clip-path="url(#clip0_908_6625)">
<path d="M0 0V9.33311V18.6663V27.9994H40V18.6663V9.33311V0H0Z" fill="#F0F0F0"/>
<path d="M40 0.000213623H0V28.0001H40V0.000213623Z" fill="#00247D"/>
<path d="M40 0.000213623H0V9.33319H40V0.000213623Z" fill="white"/>
<path d="M40 18.6663H0V27.9992H40V18.6663Z" fill="#CF142B"/>
<path d="M0 0H39.9791V27.9968H0V0Z" fill="white"/>
<path d="M17.9904 16.7895V27.9968H21.9888V16.7895H39.9792V11.1925H21.9888V0H17.9904V11.1925H0V16.7895H17.9904Z" fill="#CF142B"/>
<path d="M23.3244 9.06248V0H36.2684L23.3244 9.06248ZM23.3244 18.9342V27.9968H36.2684L23.3244 18.9342ZM16.6594 18.9342V27.9968H3.71557L16.6594 18.9342ZM16.6594 9.06248V0H3.71557L16.6594 9.06248ZM0.00250244 2.60251V9.33203H9.6141L0.00250244 2.60251ZM39.9814 2.60251V9.33203H30.3698L39.9814 2.60251ZM39.9814 25.3943V18.6648H30.3698L39.9814 25.3943ZM0.00250244 25.3943V18.6648H9.6141L0.00250244 25.3943Z" fill="#00247D"/>
<path d="M39.9791 0H37.7585L24.4533 9.33203H26.6739L40 0H39.9791ZM15.5257 18.6642H13.3052L0 27.9963H2.22053L15.5467 18.6642H15.5257ZM11.1024 9.33931H13.3228L0 0V1.5652L11.1024 9.33931ZM28.8697 18.6607H26.6492L39.972 28V26.4348L28.8697 18.6607Z" fill="#CF142B"/>
</g>
<rect x="0.5" y="0.5" width="39" height="27" rx="4.5" stroke="#E2E2E2"/>
<defs>
<clipPath id="clip0_908_6625">
<rect width="40" height="28" rx="5" fill="white"/>
</clipPath>
</defs>
</svg>
