<svg width="565" height="471" viewBox="0 0 565 471" fill="none" xmlns="http://www.w3.org/2000/svg">
<path d="M257.632 15.14C259.578 15.14 260.978 14.048 260.978 12.368C260.978 10.842 259.97 10.044 257.786 9.568C255.63 9.106 255.126 8.588 255.126 7.664C255.126 6.754 255.938 6.054 257.212 6.054C258.22 6.054 259.13 6.376 260.04 7.118L260.684 6.264C259.69 5.466 258.668 5.06 257.24 5.06C255.378 5.06 254.02 6.194 254.02 7.734C254.02 9.372 255.056 10.1 257.31 10.59C259.368 11.024 259.858 11.542 259.858 12.452C259.858 13.446 258.99 14.146 257.674 14.146C256.316 14.146 255.336 13.684 254.314 12.76L253.628 13.572C254.804 14.622 256.078 15.14 257.632 15.14ZM263.227 15H270.381V13.992H264.333V10.562H269.681V9.554H264.333V6.208H270.311V5.2H263.227V15ZM277.156 15.168C280.138 15.168 282.168 12.802 282.168 10.1C282.168 7.37 280.166 5.032 277.184 5.032C274.202 5.032 272.172 7.398 272.172 10.1C272.172 12.83 274.174 15.168 277.156 15.168ZM277.184 14.146C274.944 14.146 273.32 12.326 273.32 10.1C273.32 7.846 274.916 6.054 277.156 6.054C279.396 6.054 281.02 7.874 281.02 10.1C281.02 12.354 279.424 14.146 277.184 14.146Z" fill="#2F3139"/>
<path d="M379.866 34.168C381.644 34.168 382.764 33.538 383.786 32.502L383.058 31.732C382.12 32.628 381.238 33.146 379.894 33.146C377.738 33.146 376.1 31.368 376.1 29.1C376.1 26.818 377.724 25.054 379.894 25.054C381.224 25.054 382.148 25.614 382.974 26.398L383.702 25.614C382.722 24.69 381.686 24.032 379.908 24.032C377.024 24.032 374.952 26.328 374.952 29.1C374.952 31.942 377.038 34.168 379.866 34.168ZM388.707 34.168C390.891 34.168 392.501 32.432 392.501 30.388C392.501 28.316 390.905 26.608 388.735 26.608C386.551 26.608 384.955 28.344 384.955 30.388C384.955 32.46 386.537 34.168 388.707 34.168ZM388.735 33.202C387.209 33.202 386.061 31.942 386.061 30.388C386.061 28.834 387.139 27.56 388.707 27.56C390.233 27.56 391.395 28.834 391.395 30.388C391.395 31.942 390.303 33.202 388.735 33.202ZM394.454 34H395.532V29.856C395.532 28.498 396.456 27.588 397.702 27.588C398.976 27.588 399.704 28.428 399.704 29.772V34H400.782V29.506C400.782 27.784 399.76 26.608 398.01 26.608C396.764 26.608 396.008 27.238 395.532 28.022V26.762H394.454V34ZM405.503 34.126C406.021 34.126 406.427 34.014 406.805 33.818V32.894C406.427 33.076 406.119 33.146 405.755 33.146C405.027 33.146 404.537 32.824 404.537 31.942V27.714H406.833V26.762H404.537V24.578H403.459V26.762H402.451V27.714H403.459V32.082C403.459 33.552 404.341 34.126 405.503 34.126ZM409.18 30.822H414.92C414.934 30.654 414.934 30.542 414.934 30.444C414.934 28.316 413.702 26.608 411.56 26.608C409.558 26.608 408.088 28.288 408.088 30.388C408.088 32.642 409.712 34.168 411.7 34.168C413.072 34.168 413.954 33.622 414.682 32.81L414.01 32.208C413.422 32.824 412.722 33.23 411.728 33.23C410.454 33.23 409.334 32.348 409.18 30.822ZM409.18 29.954C409.334 28.554 410.286 27.518 411.532 27.518C412.96 27.518 413.716 28.638 413.842 29.954H409.18ZM415.739 34H416.943L419.197 31.046L421.437 34H422.683L419.827 30.29L422.571 26.762H421.367L419.225 29.562L417.083 26.762H415.851L418.581 30.318L415.739 34ZM426.858 34.126C427.376 34.126 427.782 34.014 428.16 33.818V32.894C427.782 33.076 427.474 33.146 427.11 33.146C426.382 33.146 425.892 32.824 425.892 31.942V27.714H428.188V26.762H425.892V24.578H424.814V26.762H423.806V27.714H424.814V32.082C424.814 33.552 425.696 34.126 426.858 34.126ZM432.757 34.154C434.003 34.154 434.745 33.524 435.235 32.74V34H436.299V26.762H435.235V30.906C435.235 32.264 434.297 33.174 433.065 33.174C431.791 33.174 431.063 32.334 431.063 30.99V26.762H429.985V31.256C429.985 32.978 431.007 34.154 432.757 34.154ZM440.88 34.154C442.154 34.154 442.98 33.566 443.484 32.922V34H444.548V29.576C444.548 28.652 444.296 27.952 443.792 27.448C443.274 26.93 442.476 26.65 441.454 26.65C440.39 26.65 439.62 26.902 438.822 27.266L439.144 28.148C439.816 27.84 440.488 27.63 441.342 27.63C442.7 27.63 443.484 28.302 443.484 29.59V29.814C442.84 29.632 442.196 29.506 441.272 29.506C439.438 29.506 438.178 30.318 438.178 31.872C438.178 33.384 439.522 34.154 440.88 34.154ZM441.09 33.286C440.11 33.286 439.27 32.754 439.27 31.844C439.27 30.948 440.04 30.36 441.384 30.36C442.266 30.36 442.966 30.514 443.498 30.668V31.34C443.498 32.488 442.42 33.286 441.09 33.286ZM446.929 34H448.007V23.78H446.929V34ZM454.048 34H455.182L456.344 31.41H461.678L462.826 34H464.016L459.55 24.13H458.514L454.048 34ZM456.778 30.416L459.018 25.418L461.244 30.416H456.778ZM468.449 34.154C469.779 34.154 470.633 33.412 471.221 32.544V34H472.299V23.78H471.221V28.148C470.661 27.336 469.793 26.608 468.449 26.608C466.713 26.608 464.991 28.008 464.991 30.374C464.991 32.782 466.713 34.154 468.449 34.154ZM468.645 33.188C467.273 33.188 466.097 32.096 466.097 30.388C466.097 28.61 467.245 27.574 468.645 27.574C469.989 27.574 471.263 28.694 471.263 30.36C471.263 32.054 469.989 33.188 468.645 33.188ZM477.13 34.056H478.082L481.232 26.762H480.07L477.62 32.768L475.184 26.762H473.994L477.13 34.056ZM483.145 30.822H488.885C488.899 30.654 488.899 30.542 488.899 30.444C488.899 28.316 487.667 26.608 485.525 26.608C483.523 26.608 482.053 28.288 482.053 30.388C482.053 32.642 483.677 34.168 485.665 34.168C487.037 34.168 487.919 33.622 488.647 32.81L487.975 32.208C487.387 32.824 486.687 33.23 485.693 33.23C484.419 33.23 483.299 32.348 483.145 30.822ZM483.145 29.954C483.299 28.554 484.251 27.518 485.497 27.518C486.925 27.518 487.681 28.638 487.807 29.954H483.145ZM490.786 34H491.864V31.116C491.864 28.932 493.152 27.798 494.734 27.798H494.818V26.636C493.446 26.58 492.396 27.448 491.864 28.652V26.762H490.786V34ZM498.882 34.126C499.4 34.126 499.806 34.014 500.184 33.818V32.894C499.806 33.076 499.498 33.146 499.134 33.146C498.406 33.146 497.916 32.824 497.916 31.942V27.714H500.212V26.762H497.916V24.578H496.838V26.762H495.83V27.714H496.838V32.082C496.838 33.552 497.72 34.126 498.882 34.126ZM502.148 25.18H503.38V23.99H502.148V25.18ZM502.218 34H503.296V26.762H502.218V34ZM508.192 34.14C509.634 34.14 510.768 33.342 510.768 31.97C510.768 30.64 509.564 30.206 508.444 29.87C507.478 29.576 506.582 29.31 506.582 28.624C506.582 27.994 507.128 27.546 507.982 27.546C508.682 27.546 509.452 27.812 510.124 28.246L510.614 27.434C509.872 26.944 508.892 26.636 508.01 26.636C506.582 26.636 505.546 27.462 505.546 28.708C505.546 30.066 506.806 30.458 507.94 30.78C508.892 31.046 509.746 31.326 509.746 32.054C509.746 32.782 509.116 33.23 508.248 33.23C507.394 33.23 506.526 32.894 505.742 32.306L505.196 33.076C506.008 33.734 507.156 34.14 508.192 34.14ZM512.798 25.18H514.03V23.99H512.798V25.18ZM512.868 34H513.946V26.762H512.868V34ZM516.448 34H517.526V29.856C517.526 28.498 518.45 27.588 519.696 27.588C520.97 27.588 521.698 28.428 521.698 29.772V34H522.776V29.506C522.776 27.784 521.754 26.608 520.004 26.608C518.758 26.608 518.002 27.238 517.526 28.022V26.762H516.448V34ZM528.281 36.268C529.429 36.268 530.395 35.946 531.039 35.302C531.627 34.714 531.963 33.86 531.963 32.74V26.762H530.885V28.064C530.297 27.28 529.415 26.608 528.057 26.608C526.335 26.608 524.655 27.91 524.655 30.024C524.655 32.138 526.321 33.44 528.057 33.44C529.387 33.44 530.269 32.754 530.899 31.914V32.768C530.899 34.462 529.863 35.344 528.267 35.344C527.231 35.344 526.307 35.022 525.481 34.42L524.991 35.26C525.957 35.932 527.077 36.268 528.281 36.268ZM528.267 32.488C526.923 32.488 525.761 31.48 525.761 30.024C525.761 28.512 526.895 27.56 528.267 27.56C529.639 27.56 530.927 28.526 530.927 30.01C530.927 31.494 529.639 32.488 528.267 32.488Z" fill="#2F3139"/>
<path d="M457.546 130H458.68L459.842 127.41H465.176L466.324 130H467.514L463.048 120.13H462.012L457.546 130ZM460.276 126.416L462.516 121.418L464.742 126.416H460.276ZM471.788 130.154C473.034 130.154 473.776 129.524 474.266 128.74V130H475.33V122.762H474.266V126.906C474.266 128.264 473.328 129.174 472.096 129.174C470.822 129.174 470.094 128.334 470.094 126.99V122.762H469.016V127.256C469.016 128.978 470.038 130.154 471.788 130.154ZM480.177 130.126C480.695 130.126 481.101 130.014 481.479 129.818V128.894C481.101 129.076 480.793 129.146 480.429 129.146C479.701 129.146 479.211 128.824 479.211 127.942V123.714H481.507V122.762H479.211V120.578H478.133V122.762H477.125V123.714H478.133V128.082C478.133 129.552 479.015 130.126 480.177 130.126ZM486.514 130.168C488.698 130.168 490.308 128.432 490.308 126.388C490.308 124.316 488.712 122.608 486.542 122.608C484.358 122.608 482.762 124.344 482.762 126.388C482.762 128.46 484.344 130.168 486.514 130.168ZM486.542 129.202C485.016 129.202 483.868 127.942 483.868 126.388C483.868 124.834 484.946 123.56 486.514 123.56C488.04 123.56 489.202 124.834 489.202 126.388C489.202 127.942 488.11 129.202 486.542 129.202ZM492.261 130H493.339V125.87C493.339 124.54 494.207 123.588 495.355 123.588C496.503 123.588 497.217 124.386 497.217 125.744V130H498.281V125.828C498.281 124.4 499.191 123.588 500.283 123.588C501.459 123.588 502.159 124.372 502.159 125.772V130H503.237V125.52C503.237 123.728 502.215 122.608 500.549 122.608C499.289 122.608 498.519 123.252 498.001 124.05C497.609 123.238 496.853 122.608 495.677 122.608C494.459 122.608 493.815 123.266 493.339 123.98V122.762H492.261V130ZM507.733 130.154C509.007 130.154 509.833 129.566 510.337 128.922V130H511.401V125.576C511.401 124.652 511.149 123.952 510.645 123.448C510.127 122.93 509.329 122.65 508.307 122.65C507.243 122.65 506.473 122.902 505.675 123.266L505.997 124.148C506.669 123.84 507.341 123.63 508.195 123.63C509.553 123.63 510.337 124.302 510.337 125.59V125.814C509.693 125.632 509.049 125.506 508.125 125.506C506.291 125.506 505.031 126.318 505.031 127.872C505.031 129.384 506.375 130.154 507.733 130.154ZM507.943 129.286C506.963 129.286 506.123 128.754 506.123 127.844C506.123 126.948 506.893 126.36 508.237 126.36C509.119 126.36 509.819 126.514 510.351 126.668V127.34C510.351 128.488 509.273 129.286 507.943 129.286ZM516.106 130.126C516.624 130.126 517.03 130.014 517.408 129.818V128.894C517.03 129.076 516.722 129.146 516.358 129.146C515.63 129.146 515.14 128.824 515.14 127.942V123.714H517.436V122.762H515.14V120.578H514.062V122.762H513.054V123.714H514.062V128.082C514.062 129.552 514.944 130.126 516.106 130.126ZM521.501 130.154C522.775 130.154 523.601 129.566 524.105 128.922V130H525.169V125.576C525.169 124.652 524.917 123.952 524.413 123.448C523.895 122.93 523.097 122.65 522.075 122.65C521.011 122.65 520.241 122.902 519.443 123.266L519.765 124.148C520.437 123.84 521.109 123.63 521.963 123.63C523.321 123.63 524.105 124.302 524.105 125.59V125.814C523.461 125.632 522.817 125.506 521.893 125.506C520.059 125.506 518.799 126.318 518.799 127.872C518.799 129.384 520.143 130.154 521.501 130.154ZM521.711 129.286C520.731 129.286 519.891 128.754 519.891 127.844C519.891 126.948 520.661 126.36 522.005 126.36C522.887 126.36 523.587 126.514 524.119 126.668V127.34C524.119 128.488 523.041 129.286 521.711 129.286ZM529.874 130.126C530.392 130.126 530.798 130.014 531.176 129.818V128.894C530.798 129.076 530.49 129.146 530.126 129.146C529.398 129.146 528.908 128.824 528.908 127.942V123.714H531.204V122.762H528.908V120.578H527.83V122.762H526.822V123.714H527.83V128.082C527.83 129.552 528.712 130.126 529.874 130.126ZM533.14 121.18H534.372V119.99H533.14V121.18ZM533.21 130H534.288V122.762H533.21V130ZM540.094 130.168C542.278 130.168 543.888 128.432 543.888 126.388C543.888 124.316 542.292 122.608 540.122 122.608C537.938 122.608 536.342 124.344 536.342 126.388C536.342 128.46 537.924 130.168 540.094 130.168ZM540.122 129.202C538.596 129.202 537.448 127.942 537.448 126.388C537.448 124.834 538.526 123.56 540.094 123.56C541.62 123.56 542.782 124.834 542.782 126.388C542.782 127.942 541.69 129.202 540.122 129.202ZM545.841 130H546.919V125.856C546.919 124.498 547.843 123.588 549.089 123.588C550.363 123.588 551.091 124.428 551.091 125.772V130H552.169V125.506C552.169 123.784 551.147 122.608 549.397 122.608C548.151 122.608 547.395 123.238 546.919 124.022V122.762H545.841V130Z" fill="#2F3139"/>
<path d="M14.4387 130H15.5447V126.542H17.9247C20.0107 126.542 21.7747 125.45 21.7747 123.336C21.7747 121.376 20.3187 120.2 18.1067 120.2H14.4387V130ZM15.5447 125.534V121.222H18.0227C19.6047 121.222 20.6547 121.95 20.6547 123.35C20.6547 124.666 19.5907 125.534 17.9667 125.534H15.5447ZM23.7903 130H28.1443C30.2863 130 31.7003 129.006 31.7003 127.326C31.7003 125.954 30.7623 125.282 29.6003 124.932C30.3703 124.596 31.1543 123.938 31.1543 122.664C31.1543 122.006 30.9303 121.488 30.5243 121.068C29.9783 120.508 29.0823 120.2 27.9623 120.2H23.7903V130ZM24.8823 124.568V121.194H27.8643C29.2643 121.194 30.0343 121.824 30.0343 122.79C30.0343 123.966 29.1103 124.568 27.7803 124.568H24.8823ZM24.8823 129.006V125.548H27.9763C29.6843 125.548 30.5803 126.164 30.5803 127.228C30.5803 128.348 29.6563 129.006 28.1723 129.006H24.8823ZM32.8784 130H34.1524L37.2884 125.786L40.4244 130H41.7404L37.9744 124.988L41.6004 120.2H40.3124L37.3304 124.204L34.3204 120.2H33.0184L36.6444 125.002L32.8784 130ZM43.1909 131.708C44.2549 131.47 44.7449 130.924 44.7449 129.79V128.53H43.4569V130H43.9609V130.14C43.9609 130.658 43.6669 130.98 43.0229 131.218L43.1909 131.708ZM54.7678 130.07H55.7478L59.9618 120.2H58.7718L55.2718 128.642L51.7858 120.2H50.5538L54.7678 130.07ZM64.0314 130.168C66.2154 130.168 67.8254 128.432 67.8254 126.388C67.8254 124.316 66.2294 122.608 64.0594 122.608C61.8754 122.608 60.2794 124.344 60.2794 126.388C60.2794 128.46 61.8614 130.168 64.0314 130.168ZM64.0594 129.202C62.5334 129.202 61.3854 127.942 61.3854 126.388C61.3854 124.834 62.4634 123.56 64.0314 123.56C65.5574 123.56 66.7194 124.834 66.7194 126.388C66.7194 127.942 65.6274 129.202 64.0594 129.202ZM70.0582 130H71.1642V120.2H70.0582V130ZM74.0344 130H75.1404V126.542H77.5204C79.6064 126.542 81.3704 125.45 81.3704 123.336C81.3704 121.376 79.9144 120.2 77.7024 120.2H74.0344V130ZM75.1404 125.534V121.222H77.6184C79.2004 121.222 80.2504 121.95 80.2504 123.35C80.2504 124.666 79.1864 125.534 77.5624 125.534H75.1404Z" fill="#2F3139"/>
<path d="M488.386 243H491.788C494.868 243 496.996 240.858 496.996 238.1C496.996 235.314 494.868 233.2 491.788 233.2H488.386V243ZM489.492 241.978V234.222H491.788C494.266 234.222 495.848 235.93 495.848 238.1C495.848 240.298 494.266 241.978 491.788 241.978H489.492ZM499.799 239.822H505.539C505.553 239.654 505.553 239.542 505.553 239.444C505.553 237.316 504.321 235.608 502.179 235.608C500.177 235.608 498.707 237.288 498.707 239.388C498.707 241.642 500.331 243.168 502.319 243.168C503.691 243.168 504.573 242.622 505.301 241.81L504.629 241.208C504.041 241.824 503.341 242.23 502.347 242.23C501.073 242.23 499.953 241.348 499.799 239.822ZM499.799 238.954C499.953 237.554 500.905 236.518 502.151 236.518C503.579 236.518 504.335 237.638 504.461 238.954H499.799ZM509.834 243.14C511.276 243.14 512.41 242.342 512.41 240.97C512.41 239.64 511.206 239.206 510.086 238.87C509.12 238.576 508.224 238.31 508.224 237.624C508.224 236.994 508.77 236.546 509.624 236.546C510.324 236.546 511.094 236.812 511.766 237.246L512.256 236.434C511.514 235.944 510.534 235.636 509.652 235.636C508.224 235.636 507.188 236.462 507.188 237.708C507.188 239.066 508.448 239.458 509.582 239.78C510.534 240.046 511.388 240.326 511.388 241.054C511.388 241.782 510.758 242.23 509.89 242.23C509.036 242.23 508.168 241.894 507.384 241.306L506.838 242.076C507.65 242.734 508.798 243.14 509.834 243.14ZM514.441 234.18H515.673V232.99H514.441V234.18ZM514.511 243H515.589V235.762H514.511V243ZM521.297 245.268C522.445 245.268 523.411 244.946 524.055 244.302C524.643 243.714 524.979 242.86 524.979 241.74V235.762H523.901V237.064C523.313 236.28 522.431 235.608 521.073 235.608C519.351 235.608 517.671 236.91 517.671 239.024C517.671 241.138 519.337 242.44 521.073 242.44C522.403 242.44 523.285 241.754 523.915 240.914V241.768C523.915 243.462 522.879 244.344 521.283 244.344C520.247 244.344 519.323 244.022 518.497 243.42L518.007 244.26C518.973 244.932 520.093 245.268 521.297 245.268ZM521.283 241.488C519.939 241.488 518.777 240.48 518.777 239.024C518.777 237.512 519.911 236.56 521.283 236.56C522.655 236.56 523.943 237.526 523.943 239.01C523.943 240.494 522.655 241.488 521.283 241.488ZM527.388 243H528.466V238.856C528.466 237.498 529.39 236.588 530.636 236.588C531.91 236.588 532.638 237.428 532.638 238.772V243H533.716V238.506C533.716 236.784 532.694 235.608 530.944 235.608C529.698 235.608 528.942 236.238 528.466 237.022V235.762H527.388V243Z" fill="#2F3139"/>
<path d="M456.506 361H457.598V351.13H456.786L454.392 351.956L454.658 352.852L456.506 352.278V361ZM464.884 361.168C466.662 361.168 467.782 360.538 468.804 359.502L468.076 358.732C467.138 359.628 466.256 360.146 464.912 360.146C462.756 360.146 461.118 358.368 461.118 356.1C461.118 353.818 462.742 352.054 464.912 352.054C466.242 352.054 467.166 352.614 467.992 353.398L468.72 352.614C467.74 351.69 466.704 351.032 464.926 351.032C462.042 351.032 459.97 353.328 459.97 356.1C459.97 358.942 462.056 361.168 464.884 361.168Z" fill="#2F3139"/>
<path d="M66.5032 50H67.6092V45.59H73.2652V50H74.3712V40.2H73.2652V44.554H67.6092V40.2H66.5032V50ZM79.7299 50H80.8499V41.222H84.1399V40.2H76.4399V41.222H79.7299V50ZM86.218 50H87.296V42.076L90.866 47.312H90.922L94.492 42.062V50H95.598V40.2H94.478L90.908 45.548L87.338 40.2H86.218V50ZM98.3723 50H104.994V48.978H99.4783V40.2H98.3723V50ZM115.718 50.168C117.496 50.168 118.616 49.538 119.638 48.502L118.91 47.732C117.972 48.628 117.09 49.146 115.746 49.146C113.59 49.146 111.952 47.368 111.952 45.1C111.952 42.818 113.576 41.054 115.746 41.054C117.076 41.054 118 41.614 118.826 42.398L119.554 41.614C118.574 40.69 117.538 40.032 115.76 40.032C112.876 40.032 110.804 42.328 110.804 45.1C110.804 47.942 112.89 50.168 115.718 50.168ZM124.559 50.168C126.743 50.168 128.353 48.432 128.353 46.388C128.353 44.316 126.757 42.608 124.587 42.608C122.403 42.608 120.807 44.344 120.807 46.388C120.807 48.46 122.389 50.168 124.559 50.168ZM124.587 49.202C123.061 49.202 121.913 47.942 121.913 46.388C121.913 44.834 122.991 43.56 124.559 43.56C126.085 43.56 127.247 44.834 127.247 46.388C127.247 47.942 126.155 49.202 124.587 49.202ZM133.344 50.154C134.674 50.154 135.528 49.412 136.116 48.544V50H137.194V39.78H136.116V44.148C135.556 43.336 134.688 42.608 133.344 42.608C131.608 42.608 129.886 44.008 129.886 46.374C129.886 48.782 131.608 50.154 133.344 50.154ZM133.54 49.188C132.168 49.188 130.992 48.096 130.992 46.388C130.992 44.61 132.14 43.574 133.54 43.574C134.884 43.574 136.158 44.694 136.158 46.36C136.158 48.054 134.884 49.188 133.54 49.188ZM139.63 41.18H140.862V39.99H139.63V41.18ZM139.7 50H140.778V42.762H139.7V50ZM143.28 50H144.358V45.856C144.358 44.498 145.282 43.588 146.528 43.588C147.802 43.588 148.53 44.428 148.53 45.772V50H149.608V45.506C149.608 43.784 148.586 42.608 146.836 42.608C145.59 42.608 144.834 43.238 144.358 44.022V42.762H143.28V50ZM155.113 52.268C156.261 52.268 157.227 51.946 157.871 51.302C158.459 50.714 158.795 49.86 158.795 48.74V42.762H157.717V44.064C157.129 43.28 156.247 42.608 154.889 42.608C153.167 42.608 151.487 43.91 151.487 46.024C151.487 48.138 153.153 49.44 154.889 49.44C156.219 49.44 157.101 48.754 157.731 47.914V48.768C157.731 50.462 156.695 51.344 155.099 51.344C154.063 51.344 153.139 51.022 152.313 50.42L151.823 51.26C152.789 51.932 153.909 52.268 155.113 52.268ZM155.099 48.488C153.755 48.488 152.593 47.48 152.593 46.024C152.593 44.512 153.727 43.56 155.099 43.56C156.471 43.56 157.759 44.526 157.759 46.01C157.759 47.494 156.471 48.488 155.099 48.488Z" fill="#2F3139"/>
<path d="M380.866 440.168C382.644 440.168 383.764 439.538 384.786 438.502L384.058 437.732C383.12 438.628 382.238 439.146 380.894 439.146C378.738 439.146 377.1 437.368 377.1 435.1C377.1 432.818 378.724 431.054 380.894 431.054C382.224 431.054 383.148 431.614 383.974 432.398L384.702 431.614C383.722 430.69 382.686 430.032 380.908 430.032C378.024 430.032 375.952 432.328 375.952 435.1C375.952 437.942 378.038 440.168 380.866 440.168ZM386.54 440H387.618V437.116C387.618 434.932 388.906 433.798 390.488 433.798H390.572V432.636C389.2 432.58 388.15 433.448 387.618 434.652V432.762H386.54V440ZM392.543 436.822H398.283C398.297 436.654 398.297 436.542 398.297 436.444C398.297 434.316 397.065 432.608 394.923 432.608C392.921 432.608 391.451 434.288 391.451 436.388C391.451 438.642 393.075 440.168 395.063 440.168C396.435 440.168 397.317 439.622 398.045 438.81L397.373 438.208C396.785 438.824 396.085 439.23 395.091 439.23C393.817 439.23 392.697 438.348 392.543 436.822ZM392.543 435.954C392.697 434.554 393.649 433.518 394.895 433.518C396.323 433.518 397.079 434.638 397.205 435.954H392.543ZM402.34 440.154C403.614 440.154 404.44 439.566 404.944 438.922V440H406.008V435.576C406.008 434.652 405.756 433.952 405.252 433.448C404.734 432.93 403.936 432.65 402.914 432.65C401.85 432.65 401.08 432.902 400.282 433.266L400.604 434.148C401.276 433.84 401.948 433.63 402.802 433.63C404.16 433.63 404.944 434.302 404.944 435.59V435.814C404.3 435.632 403.656 435.506 402.732 435.506C400.898 435.506 399.638 436.318 399.638 437.872C399.638 439.384 400.982 440.154 402.34 440.154ZM402.55 439.286C401.57 439.286 400.73 438.754 400.73 437.844C400.73 436.948 401.5 436.36 402.844 436.36C403.726 436.36 404.426 436.514 404.958 436.668V437.34C404.958 438.488 403.88 439.286 402.55 439.286ZM410.714 440.126C411.232 440.126 411.638 440.014 412.016 439.818V438.894C411.638 439.076 411.33 439.146 410.966 439.146C410.238 439.146 409.748 438.824 409.748 437.942V433.714H412.044V432.762H409.748V430.578H408.67V432.762H407.662V433.714H408.67V438.082C408.67 439.552 409.552 440.126 410.714 440.126ZM413.98 431.18H415.212V429.99H413.98V431.18ZM414.05 440H415.128V432.762H414.05V440ZM420.934 440.168C423.118 440.168 424.728 438.432 424.728 436.388C424.728 434.316 423.132 432.608 420.962 432.608C418.778 432.608 417.182 434.344 417.182 436.388C417.182 438.46 418.764 440.168 420.934 440.168ZM420.962 439.202C419.436 439.202 418.288 437.942 418.288 436.388C418.288 434.834 419.366 433.56 420.934 433.56C422.46 433.56 423.622 434.834 423.622 436.388C423.622 437.942 422.53 439.202 420.962 439.202ZM426.681 440H427.759V435.856C427.759 434.498 428.683 433.588 429.929 433.588C431.203 433.588 431.931 434.428 431.931 435.772V440H433.009V435.506C433.009 433.784 431.987 432.608 430.237 432.608C428.991 432.608 428.235 433.238 427.759 434.022V432.762H426.681V440ZM442.809 440.168C444.993 440.168 446.603 438.432 446.603 436.388C446.603 434.316 445.007 432.608 442.837 432.608C440.653 432.608 439.057 434.344 439.057 436.388C439.057 438.46 440.639 440.168 442.809 440.168ZM442.837 439.202C441.311 439.202 440.163 437.942 440.163 436.388C440.163 434.834 441.241 433.56 442.809 433.56C444.335 433.56 445.497 434.834 445.497 436.388C445.497 437.942 444.405 439.202 442.837 439.202ZM448.962 440H450.04V433.714H452.322V432.79H450.026V432.202C450.026 431.166 450.446 430.662 451.286 430.662C451.65 430.662 451.944 430.732 452.336 430.844V429.906C451.986 429.78 451.65 429.724 451.146 429.724C450.488 429.724 449.956 429.92 449.592 430.284C449.186 430.69 448.962 431.32 448.962 432.146V432.776H447.968V433.714H448.962V440ZM460.665 440H461.785V431.222H465.075V430.2H457.375V431.222H460.665V440ZM467.154 440H468.26V436.192H471.06L473.902 440H475.26L472.25 435.996C473.79 435.716 474.91 434.764 474.91 433.14C474.91 432.342 474.63 431.656 474.154 431.18C473.538 430.564 472.572 430.2 471.368 430.2H467.154V440ZM468.26 435.198V431.222H471.284C472.866 431.222 473.79 431.95 473.79 433.154C473.79 434.442 472.74 435.198 471.27 435.198H468.26Z" fill="#2F3139"/>
<path opacity="0.15" fill-rule="evenodd" clip-rule="evenodd" d="M59.5 238L59.5001 237.759C59.5044 238.032 59.7264 238.251 59.9998 238.252L79.0002 238.263C79.0467 272.425 88.1568 304.463 104.055 332.101L87.749 341.568C87.5102 341.706 87.4289 342.012 87.5676 342.251C87.7062 342.49 88.0122 342.571 88.251 342.432L104.556 332.967C121.045 361.286 144.684 384.929 172.999 401.425L163.567 417.75C163.429 417.989 163.511 418.295 163.75 418.433C163.989 418.571 164.295 418.489 164.433 418.25L173.865 401.926C201.447 417.799 233.413 426.911 267.5 426.999V446C267.5 446.276 267.724 446.5 268 446.5C152.849 446.5 59.5 353.151 59.5 238ZM268 446.5C268.276 446.5 268.5 446.276 268.5 446V426.999C302.59 426.911 334.559 417.797 362.143 401.921L371.567 418.25C371.705 418.489 372.011 418.571 372.25 418.433C372.489 418.295 372.571 417.989 372.433 417.75L363.008 401.42C391.309 384.932 414.937 361.302 431.425 333.001L447.75 342.433C447.989 342.571 448.295 342.489 448.433 342.25C448.571 342.011 448.489 341.705 448.25 341.567L431.926 332.135C447.801 304.55 456.913 272.58 456.999 238.489L476 238.5C476.275 238.5 476.498 238.278 476.5 238.004C476.498 353.153 383.15 446.5 268 446.5ZM174.365 401.06C201.8 416.848 233.595 425.911 267.5 425.999V406.999C237.059 406.911 208.511 398.775 183.872 384.605L174.365 401.06ZM184.372 383.739C208.864 397.823 237.241 405.911 267.5 405.999V386.999C240.704 386.911 215.574 379.75 193.879 367.285L184.372 383.739ZM193.014 366.784L183.507 383.238C158.361 368.578 137.368 347.575 122.72 322.421L139.154 312.88C152.136 335.17 170.736 353.784 193.014 366.784ZM194.38 366.419C215.928 378.799 240.887 385.911 267.5 385.999V366.999C244.35 366.911 222.638 360.726 203.887 349.965L194.38 366.419ZM203.021 349.464L193.514 365.918C171.387 353.006 152.913 334.517 140.019 312.378L156.454 302.837C167.681 322.112 183.762 338.212 203.021 349.464ZM204.387 349.099C222.991 359.774 244.533 365.911 267.5 365.999V346.999C247.996 346.911 229.702 341.701 213.894 332.645L204.387 349.099ZM213.029 332.143L203.522 348.598C184.413 337.434 168.459 321.459 157.319 302.335L173.753 292.794C183.227 309.054 196.788 322.64 213.029 332.143ZM214.394 331.779C230.055 340.75 248.178 345.911 267.5 345.999V326.999C251.642 326.911 236.766 322.677 223.901 315.324L214.394 331.779ZM223.036 314.823L213.529 331.277C197.439 321.861 184.004 308.401 174.618 292.292L191.052 282.751C198.772 295.996 209.814 307.068 223.036 314.823ZM224.402 314.458C237.119 321.725 251.824 325.911 267.5 325.999V306.998C255.288 306.912 243.83 303.652 233.909 298.004L224.402 314.458ZM233.043 297.503L223.536 313.957C210.465 306.289 199.549 295.343 191.917 282.249L208.351 272.707C214.317 282.938 222.84 291.495 233.043 297.503ZM234.409 297.138C244.183 302.701 255.47 305.912 267.5 305.998V286.997C258.933 286.912 250.893 284.628 243.916 280.683L234.409 297.138ZM243.051 280.182L233.544 296.636C223.491 290.717 215.095 282.285 209.216 272.205L225.651 262.664C229.863 269.88 235.866 275.923 243.051 280.182ZM244.417 279.817C251.246 283.677 259.116 285.912 267.5 285.997V239.865L244.417 279.817ZM267.063 238.622L243.551 279.316C236.517 275.144 230.64 269.227 226.516 262.162L267.063 238.622ZM269.806 235.873L309.042 213.095C304.944 206.358 299.235 200.709 292.449 196.684L269.806 235.873ZM291.583 196.183L268.5 236.135V190.003C276.884 190.088 284.754 192.323 291.583 196.183ZM292.949 195.818C299.886 199.93 305.722 205.705 309.907 212.593L326.343 203.05C320.489 193.299 312.26 185.137 302.456 179.364L292.949 195.818ZM301.591 178.862L292.084 195.317C285.107 191.372 277.067 189.088 268.5 189.003V170.002C280.53 170.088 291.817 173.299 301.591 178.862ZM302.957 178.497C312.912 184.359 321.267 192.647 327.208 202.548L343.644 193.006C336.035 180.241 325.286 169.565 312.464 162.043L302.957 178.497ZM311.598 161.542L302.091 177.996C292.17 172.348 280.712 169.088 268.5 169.002V150.001C284.176 150.089 298.881 154.275 311.598 161.542ZM312.964 161.177C325.937 168.787 336.812 179.589 344.509 192.504L360.944 182.963C351.58 167.184 338.312 153.993 322.471 144.723L312.964 161.177ZM321.606 144.221L312.099 160.676C299.234 153.323 284.358 149.089 268.5 149.001V130.001C287.822 130.089 305.945 135.25 321.606 144.221ZM322.971 143.857C338.963 153.215 352.357 166.531 361.809 182.461L378.244 172.919C367.125 154.126 351.338 138.421 332.478 127.402L322.971 143.857ZM331.613 126.901L322.106 143.355C306.298 134.299 288.004 129.089 268.5 129.001V110.001C291.467 110.089 313.009 116.226 331.613 126.901ZM332.979 126.536C351.989 137.642 367.902 153.473 379.109 172.417L395.543 162.876C382.67 141.068 364.364 122.849 342.486 110.082L332.979 126.536ZM341.62 109.581L332.113 126.035C313.362 115.274 291.65 109.089 268.5 109.001V90.0008C295.113 90.0888 320.072 97.2012 341.62 109.581ZM342.986 109.216C365.015 122.07 383.448 140.415 396.408 162.374L412.843 152.832C398.216 128.01 377.389 107.277 352.493 92.7617L342.986 109.216ZM351.628 92.2606L342.121 108.715C320.426 96.25 295.296 89.0888 268.5 89.0008V70.0007C298.759 70.0889 327.136 78.1767 351.628 92.2606ZM352.993 91.8957C378.041 106.498 398.993 127.357 413.708 152.33L430.142 142.789C413.761 114.952 390.415 91.7044 362.5 75.4414L352.993 91.8957ZM361.635 74.9403L352.128 91.3946C327.489 77.2255 298.941 69.0889 268.5 69.0007V50.0007C302.405 50.0889 334.2 59.1523 361.635 74.9403ZM363.001 74.5754L372.433 58.2501C372.571 58.011 372.489 57.7052 372.25 57.5671C372.011 57.4289 371.705 57.5108 371.567 57.7499L362.135 74.0743C334.553 58.2011 302.587 49.0889 268.5 49.0006V30C268.5 29.7239 268.276 29.5 268 29.5C344.663 29.5 411.662 70.8751 447.885 132.513C447.866 132.518 447.848 132.523 447.829 132.53C447.802 132.54 447.775 132.552 447.749 132.568L431.007 142.287C414.538 114.299 391.067 90.9258 363.001 74.5754ZM268 29.5C267.724 29.5 267.5 29.7239 267.5 30V49.0006C233.478 49.0887 201.569 58.1662 174.023 73.9833L164.599 57.6544C164.461 57.4153 164.155 57.3333 163.916 57.4713C163.676 57.6094 163.595 57.9151 163.733 58.1543L173.157 74.4836C144.783 90.9765 121.095 114.643 104.575 142.999L88.2501 133.567C88.011 133.429 87.7052 133.511 87.5671 133.75C87.4289 133.989 87.5107 134.295 87.7498 134.433L104.074 143.865C88.2379 171.383 79.1312 203.265 79.0014 237.263L60.0004 237.252C59.7272 237.251 59.505 237.47 59.5002 237.742C59.6392 122.709 152.934 29.5 268 29.5ZM183.007 384.104L173.5 400.559C145.336 384.15 121.823 360.633 105.421 332.465L121.855 322.923C136.591 348.228 157.71 369.357 183.007 384.104ZM430.559 332.5C414.159 360.65 390.657 384.153 362.508 400.554L353.009 384.095C378.275 369.362 399.373 348.261 414.104 322.993L430.559 332.5ZM361.643 401.055L352.143 384.596C327.501 398.771 298.948 406.911 268.5 406.999V425.999C302.408 425.911 334.206 416.846 361.643 401.055ZM413.238 322.493C398.595 347.609 377.623 368.583 352.509 383.229L343.009 366.77C365.242 353.792 383.81 335.221 396.784 312.986L413.238 322.493ZM351.643 383.73L342.144 367.272C320.444 379.745 295.305 386.911 268.5 386.999V405.999C298.766 405.911 327.148 397.82 351.643 383.73ZM395.918 312.486C383.031 334.569 364.59 353.014 342.509 365.904L333.01 349.445C352.208 338.222 368.246 322.18 379.464 302.979L395.918 312.486ZM341.644 366.405L332.145 349.947C313.386 360.719 291.663 366.911 268.5 366.999V385.999C295.123 385.911 320.091 378.794 341.644 366.405ZM378.598 302.478C367.468 321.528 351.557 337.444 332.51 348.579L323.011 332.12C339.175 322.653 352.682 309.14 362.143 292.971L378.598 302.478ZM331.645 349.081L322.146 332.622C306.328 341.692 288.02 346.911 268.5 346.999V365.999C291.481 365.911 313.033 359.767 331.645 349.081ZM361.277 292.471C351.904 308.488 338.523 321.874 322.511 331.254L313.011 314.795C326.141 307.083 337.118 296.099 344.823 282.964L361.277 292.471ZM321.646 331.756L312.146 315.297C299.271 322.666 284.378 326.911 268.5 326.999V345.999C287.838 345.911 305.976 340.741 321.646 331.756ZM343.957 282.464C336.34 295.447 325.49 306.304 312.511 313.929L303.012 297.47C313.108 291.513 321.555 283.059 327.503 272.957L343.957 282.464ZM311.646 314.431L302.147 297.972C292.213 303.64 280.735 306.911 268.5 306.998V325.999C284.195 325.911 298.918 321.715 311.646 314.431ZM326.636 272.456C320.777 282.407 312.456 290.735 302.512 296.604L293.012 280.144C300.074 275.944 305.991 270.018 310.182 262.949L326.636 272.456ZM301.647 297.106L292.147 280.647C285.156 284.614 277.093 286.912 268.5 286.997V305.998C280.553 305.911 291.86 302.689 301.647 297.106ZM309.316 262.449C305.213 269.366 299.423 275.165 292.512 279.278L269.532 239.462L309.316 262.449ZM291.647 279.78L268.5 239.675L268.5 285.997C276.911 285.912 284.803 283.663 291.647 279.78ZM267.5 190.003V235.942L244.519 196.125C251.325 192.301 259.158 190.088 267.5 190.003ZM266.799 236.729L243.653 196.624C236.669 200.743 230.819 206.579 226.684 213.551L266.799 236.729ZM267.5 189.003C258.975 189.088 250.972 191.35 244.019 195.259L234.519 178.8C244.268 173.275 255.515 170.088 267.5 170.002V189.003ZM243.153 195.758L233.653 179.299C223.636 185.173 215.256 193.538 209.364 203.544L225.818 213.051C230.041 205.927 236.017 199.964 243.153 195.758ZM267.5 169.002C255.333 169.088 243.915 172.324 234.019 177.934L224.52 161.474C237.21 154.249 251.873 150.088 267.5 150.001V169.002ZM233.153 178.433L223.654 161.974C210.602 169.604 199.692 180.498 192.043 193.536L208.497 203.043C214.478 192.886 222.984 184.395 233.153 178.433ZM267.5 149.001C251.691 149.088 236.857 153.297 224.02 160.608L214.52 144.149C230.152 135.222 248.23 130.088 267.5 130.001V149.001ZM223.154 161.108L213.654 144.649C197.569 154.034 184.128 167.457 174.723 183.529L191.177 193.036C198.914 179.846 209.951 168.825 223.154 161.108ZM267.5 129.001C248.048 129.088 229.8 134.271 214.02 143.283L204.521 126.824C223.095 116.196 244.588 110.089 267.5 110.001V129.001ZM213.154 143.783L203.655 127.324C184.535 138.464 168.564 154.417 157.402 173.522L173.857 183.029C183.35 166.805 196.917 153.255 213.154 143.783ZM267.5 109.001C244.406 109.089 222.742 115.245 204.021 125.958L194.522 109.499C216.037 97.17 240.945 90.0886 267.5 90.0008V109.001ZM203.155 126.458L193.656 110C171.502 122.895 153.001 141.376 140.082 163.514L156.536 173.021C167.786 153.765 183.884 137.686 203.155 126.458ZM267.5 89.0008C240.763 89.0886 215.684 96.2187 194.022 108.633L184.522 92.1745C208.98 78.1438 237.303 70.0887 267.5 70.0007V89.0008ZM193.156 109.133L183.656 92.6747C158.469 107.325 137.437 128.336 122.762 153.507L139.216 163.014C152.223 140.724 170.85 122.116 193.156 109.133ZM267.5 69.0007C237.12 69.0887 208.627 77.1925 184.022 91.3082L174.523 74.8496C201.922 59.1175 233.66 50.0887 267.5 50.0007V69.0007ZM183.157 91.8084L173.657 75.3498C145.435 91.755 121.873 115.295 105.441 143.5L121.896 153.007C136.659 127.684 157.817 106.546 183.157 91.8084ZM431.06 331.635C446.85 304.197 455.913 272.397 455.999 238.488L436.999 238.477C436.915 268.927 428.778 297.483 414.605 322.128L431.06 331.635ZM413.739 321.628C427.827 297.13 435.915 268.744 435.999 238.476L416.999 238.465C416.917 265.274 409.755 290.416 397.285 312.121L413.739 321.628ZM396.419 311.62C408.804 290.063 415.918 265.091 415.999 238.464L396.999 238.453C396.92 261.62 390.733 283.349 379.965 302.113L396.419 311.62ZM379.099 301.613C389.782 282.996 395.92 261.438 395.999 238.452L376.999 238.441C376.922 257.967 371.71 276.282 362.645 292.106L379.099 301.613ZM361.779 291.606C370.759 275.929 375.922 257.784 375.999 238.44L356.999 238.429C356.924 254.314 352.688 269.215 345.324 282.099L361.779 291.606ZM344.458 281.598C351.737 268.862 355.924 254.131 355.999 238.428L336.999 238.417C336.926 250.66 333.665 262.148 328.004 272.091L344.458 281.598ZM327.138 271.591C332.714 261.795 335.926 250.478 335.999 238.416L316.998 238.405C316.929 247.007 314.642 255.081 310.683 262.084L327.138 271.591ZM309.817 261.583C313.691 254.728 315.929 246.825 315.998 238.404L269.652 238.377L309.817 261.583ZM226.183 214.417L265.918 237.375L220.004 237.347C220.115 229.02 222.347 221.205 226.183 214.417ZM208.862 204.409L225.317 213.916C221.396 220.851 219.115 228.837 219.004 237.347L200.003 237.335C200.118 225.367 203.324 214.138 208.862 204.409ZM191.542 194.402L207.996 203.909C202.373 213.785 199.118 225.184 199.003 237.335L180.003 237.323C180.12 221.714 184.302 207.071 191.542 194.402ZM174.221 184.394L190.676 193.901C183.351 206.718 179.12 221.531 179.003 237.323L160.002 237.311C160.122 218.06 165.279 200.004 174.221 184.394ZM156.901 174.387L173.355 183.894C164.328 199.651 159.122 217.878 159.002 237.311L140.002 237.299C140.125 214.407 146.257 192.937 156.901 174.387ZM139.581 164.38L156.035 173.887C145.306 192.584 139.125 214.224 139.002 237.299L120.002 237.287C120.127 210.754 127.234 185.87 139.581 164.38ZM122.261 154.372L138.715 163.879C126.283 185.517 119.127 210.571 119.002 237.287L100.002 237.275C100.129 207.101 108.212 178.803 122.261 154.372ZM104.94 144.365L121.395 153.872C107.26 178.45 99.129 206.918 99.0015 237.275L80.0014 237.264C80.1311 203.447 89.189 171.736 104.94 144.365ZM104.92 331.599C89.1077 304.109 80.0468 272.242 80.0002 238.264L99.0002 238.275C99.0488 268.772 107.175 297.375 121.354 322.058L104.92 331.599ZM122.219 321.556C108.126 297.02 100.049 268.589 100 238.275L119 238.287C119.051 265.119 126.194 290.286 138.654 312.014L122.219 321.556ZM139.519 311.512C127.145 289.932 120.051 264.936 120 238.287L139 238.299C139.053 261.465 145.212 283.198 155.954 301.971L139.519 311.512ZM156.819 301.469C146.163 282.843 140.053 261.283 140 238.299L159 238.311C159.055 257.812 164.231 276.109 173.253 291.928L156.819 301.469ZM174.118 291.425C165.181 275.755 160.055 257.629 160 238.311L179.001 238.323C179.057 254.159 183.249 269.021 190.553 281.884L174.118 291.425ZM191.418 281.382C184.2 268.666 180.057 253.976 180.001 238.323L199.001 238.335C199.059 250.506 202.268 261.932 207.854 271.84L191.418 281.382ZM208.719 271.338C203.219 261.578 200.059 250.323 200.001 238.335L219.001 238.347C219.06 246.853 221.286 254.844 225.156 261.795L208.719 271.338ZM226.021 261.293C222.237 254.49 220.06 246.67 220.001 238.347L265.498 238.374L226.021 261.293ZM269.209 237.377L315.996 237.404C315.893 228.866 313.56 220.865 309.552 213.955L269.209 237.377ZM316.996 237.405L335.998 237.416C335.895 225.213 332.578 213.776 326.852 203.912L310.417 213.453C314.51 220.51 316.893 228.684 316.996 237.405ZM336.998 237.417L355.998 237.428C355.897 221.56 351.596 206.688 344.151 193.868L327.717 203.409C333.529 213.422 336.895 225.03 336.998 237.417ZM356.998 237.429L375.999 237.44C375.899 217.907 370.615 199.599 361.45 183.825L345.016 193.366C352.547 206.333 356.897 221.377 356.998 237.429ZM376.999 237.441L395.999 237.452C395.902 214.253 389.633 192.511 378.749 173.782L362.315 183.323C371.565 199.245 376.9 217.724 376.999 237.441ZM396.999 237.453L415.999 237.464C415.904 210.6 408.651 185.422 396.049 163.739L379.614 173.28C390.584 192.156 396.902 214.071 396.999 237.453ZM416.999 237.465L435.999 237.476C435.906 206.947 427.67 178.334 413.348 153.696L396.914 163.237C409.602 185.068 416.904 210.417 416.999 237.465ZM436.999 237.477L455.999 237.488C455.908 203.294 446.688 171.245 430.647 143.652L414.213 153.193C428.621 177.979 436.906 206.764 436.999 237.477ZM476 237.5L456.999 237.489C456.908 203.111 447.639 170.891 431.512 143.15L448.251 133.432C448.296 133.407 448.335 133.375 448.368 133.339C466.255 164.098 476.499 199.851 476.5 237.997C476.498 237.722 476.275 237.5 476 237.5ZM268 28.5C152.296 28.5 58.5 122.296 58.5 238C58.5 353.704 152.296 447.5 268 447.5C383.704 447.5 477.5 353.704 477.5 238C477.5 122.296 383.704 28.5 268 28.5Z" fill="#2F3139"/>
<circle cx="268" cy="29" r="3" fill="#FEE500"/>
<circle cx="268" cy="447" r="3" fill="#FEE500"/>
<circle cx="164" cy="57" r="3" fill="#FEE500"/>
<circle cx="164" cy="419" r="3" fill="#FEE500"/>
<circle cx="373" cy="57" r="3" fill="#FEE500"/>
<circle cx="373" cy="419" r="3" fill="#FEE500"/>
<circle cx="449" cy="133" r="3" fill="#FEE500"/>
<circle cx="477" cy="238" r="3" fill="#FEE500"/>
<circle cx="59" cy="238" r="3" fill="#FEE500"/>
<circle cx="449" cy="343" r="3" fill="#FEE500"/>
<circle cx="87" cy="133" r="3" fill="#FEE500"/>
<circle cx="87" cy="343" r="3" fill="#FEE500"/>
<path d="M29.6321 245H30.7381V240.59H36.3941V245H37.5001V235.2H36.3941V239.554H30.7381V235.2H29.6321V245ZM40.2688 245H41.3748V241.192H44.1748L47.0168 245H48.3748L45.3648 240.996C46.9048 240.716 48.0248 239.764 48.0248 238.14C48.0248 237.342 47.7448 236.656 47.2688 236.18C46.6528 235.564 45.6868 235.2 44.4828 235.2H40.2688V245ZM41.3748 240.198V236.222H44.3988C45.9808 236.222 46.9048 236.95 46.9048 238.154C46.9048 239.442 45.8548 240.198 44.3848 240.198H41.3748Z" fill="#2F3139"/>
<path d="M55.2586 361.168C57.0366 361.168 58.1566 360.538 59.1786 359.502L58.4506 358.732C57.5126 359.628 56.6306 360.146 55.2866 360.146C53.1306 360.146 51.4926 358.368 51.4926 356.1C51.4926 353.818 53.1166 352.054 55.2866 352.054C56.6166 352.054 57.5406 352.614 58.3666 353.398L59.0946 352.614C58.1146 351.69 57.0786 351.032 55.3006 351.032C52.4166 351.032 50.3446 353.328 50.3446 356.1C50.3446 358.942 52.4306 361.168 55.2586 361.168ZM61.1145 361H62.2205V357.192H65.0205L67.8625 361H69.2205L66.2105 356.996C67.7505 356.716 68.8705 355.764 68.8705 354.14C68.8705 353.342 68.5905 352.656 68.1145 352.18C67.4985 351.564 66.5325 351.2 65.3285 351.2H61.1145V361ZM62.2205 356.198V352.222H65.2445C66.8265 352.222 67.7505 352.95 67.7505 354.154C67.7505 355.442 66.7005 356.198 65.2305 356.198H62.2205ZM71.2317 361H72.3097V353.076L75.8797 358.312H75.9357L79.5057 353.062V361H80.6117V351.2H79.4917L75.9217 356.548L72.3517 351.2H71.2317V361Z" fill="#2F3139"/>
<path d="M67.6673 440H68.7733V436.542H71.1533C73.2393 436.542 75.0033 435.45 75.0033 433.336C75.0033 431.376 73.5473 430.2 71.3353 430.2H67.6673V440ZM68.7733 435.534V431.222H71.2513C72.8333 431.222 73.8833 431.95 73.8833 433.35C73.8833 434.666 72.8193 435.534 71.1953 435.534H68.7733ZM76.8368 440H77.9148V437.116C77.9148 434.932 79.2028 433.798 80.7848 433.798H80.8688V432.636C79.4968 432.58 78.4468 433.448 77.9148 434.652V432.762H76.8368V440ZM85.5002 440.168C87.6842 440.168 89.2942 438.432 89.2942 436.388C89.2942 434.316 87.6982 432.608 85.5282 432.608C83.3442 432.608 81.7482 434.344 81.7482 436.388C81.7482 438.46 83.3302 440.168 85.5002 440.168ZM85.5282 439.202C84.0022 439.202 82.8542 437.942 82.8542 436.388C82.8542 434.834 83.9322 433.56 85.5002 433.56C87.0262 433.56 88.1882 434.834 88.1882 436.388C88.1882 437.942 87.0962 439.202 85.5282 439.202ZM94.453 442.268C95.601 442.268 96.567 441.946 97.211 441.302C97.799 440.714 98.135 439.86 98.135 438.74V432.762H97.057V434.064C96.469 433.28 95.587 432.608 94.229 432.608C92.507 432.608 90.827 433.91 90.827 436.024C90.827 438.138 92.493 439.44 94.229 439.44C95.559 439.44 96.441 438.754 97.071 437.914V438.768C97.071 440.462 96.035 441.344 94.439 441.344C93.403 441.344 92.479 441.022 91.653 440.42L91.163 441.26C92.129 441.932 93.249 442.268 94.453 442.268ZM94.439 438.488C93.095 438.488 91.933 437.48 91.933 436.024C91.933 434.512 93.067 433.56 94.439 433.56C95.811 433.56 97.099 434.526 97.099 436.01C97.099 437.494 95.811 438.488 94.439 438.488ZM100.544 440H101.622V437.116C101.622 434.932 102.91 433.798 104.492 433.798H104.576V432.636C103.204 432.58 102.154 433.448 101.622 434.652V432.762H100.544V440ZM108.018 440.154C109.292 440.154 110.118 439.566 110.622 438.922V440H111.686V435.576C111.686 434.652 111.434 433.952 110.93 433.448C110.412 432.93 109.614 432.65 108.592 432.65C107.528 432.65 106.758 432.902 105.96 433.266L106.282 434.148C106.954 433.84 107.626 433.63 108.48 433.63C109.838 433.63 110.622 434.302 110.622 435.59V435.814C109.978 435.632 109.334 435.506 108.41 435.506C106.576 435.506 105.316 436.318 105.316 437.872C105.316 439.384 106.66 440.154 108.018 440.154ZM108.228 439.286C107.248 439.286 106.408 438.754 106.408 437.844C106.408 436.948 107.178 436.36 108.522 436.36C109.404 436.36 110.104 436.514 110.636 436.668V437.34C110.636 438.488 109.558 439.286 108.228 439.286ZM113.97 440H115.048V435.87C115.048 434.54 115.916 433.588 117.064 433.588C118.212 433.588 118.926 434.386 118.926 435.744V440H119.99V435.828C119.99 434.4 120.9 433.588 121.992 433.588C123.168 433.588 123.868 434.372 123.868 435.772V440H124.946V435.52C124.946 433.728 123.924 432.608 122.258 432.608C120.998 432.608 120.228 433.252 119.71 434.05C119.318 433.238 118.562 432.608 117.386 432.608C116.168 432.608 115.524 433.266 115.048 433.98V432.762H113.97V440ZM127.286 440H128.364V435.87C128.364 434.54 129.232 433.588 130.38 433.588C131.528 433.588 132.242 434.386 132.242 435.744V440H133.306V435.828C133.306 434.4 134.216 433.588 135.308 433.588C136.484 433.588 137.184 434.372 137.184 435.772V440H138.262V435.52C138.262 433.728 137.24 432.608 135.574 432.608C134.314 432.608 133.544 433.252 133.026 434.05C132.634 433.238 131.878 432.608 130.702 432.608C129.484 432.608 128.84 433.266 128.364 433.98V432.762H127.286V440ZM140.63 431.18H141.862V429.99H140.63V431.18ZM140.7 440H141.778V432.762H140.7V440ZM144.28 440H145.358V435.856C145.358 434.498 146.282 433.588 147.528 433.588C148.802 433.588 149.53 434.428 149.53 435.772V440H150.608V435.506C150.608 433.784 149.586 432.608 147.836 432.608C146.59 432.608 145.834 433.238 145.358 434.022V432.762H144.28V440ZM156.113 442.268C157.261 442.268 158.227 441.946 158.871 441.302C159.459 440.714 159.795 439.86 159.795 438.74V432.762H158.717V434.064C158.129 433.28 157.247 432.608 155.889 432.608C154.167 432.608 152.487 433.91 152.487 436.024C152.487 438.138 154.153 439.44 155.889 439.44C157.219 439.44 158.101 438.754 158.731 437.914V438.768C158.731 440.462 157.695 441.344 156.099 441.344C155.063 441.344 154.139 441.022 153.313 440.42L152.823 441.26C153.789 441.932 154.909 442.268 156.113 442.268ZM156.099 438.488C154.755 438.488 153.593 437.48 153.593 436.024C153.593 434.512 154.727 433.56 156.099 433.56C157.471 433.56 158.759 434.526 158.759 436.01C158.759 437.494 157.471 438.488 156.099 438.488Z" fill="#2F3139"/>
<path d="M242.844 470H243.95V466.542H246.33C248.416 466.542 250.18 465.45 250.18 463.336C250.18 461.376 248.724 460.2 246.512 460.2H242.844V470ZM243.95 465.534V461.222H246.428C248.01 461.222 249.06 461.95 249.06 463.35C249.06 464.666 247.996 465.534 246.372 465.534H243.95ZM255.318 470.168C257.502 470.168 259.112 468.432 259.112 466.388C259.112 464.316 257.516 462.608 255.346 462.608C253.162 462.608 251.566 464.344 251.566 466.388C251.566 468.46 253.148 470.168 255.318 470.168ZM255.346 469.202C253.82 469.202 252.672 467.942 252.672 466.388C252.672 464.834 253.75 463.56 255.318 463.56C256.844 463.56 258.006 464.834 258.006 466.388C258.006 467.942 256.914 469.202 255.346 469.202ZM262.627 470.056H263.579L265.539 464.344L267.485 470.056H268.423L270.971 462.762H269.851L267.947 468.572L265.987 462.734H265.091L263.145 468.572L261.241 462.762H260.093L262.627 470.056ZM273.056 466.822H278.796C278.81 466.654 278.81 466.542 278.81 466.444C278.81 464.316 277.578 462.608 275.436 462.608C273.434 462.608 271.964 464.288 271.964 466.388C271.964 468.642 273.588 470.168 275.576 470.168C276.948 470.168 277.83 469.622 278.558 468.81L277.886 468.208C277.298 468.824 276.598 469.23 275.604 469.23C274.33 469.23 273.21 468.348 273.056 466.822ZM273.056 465.954C273.21 464.554 274.162 463.518 275.408 463.518C276.836 463.518 277.592 464.638 277.718 465.954H273.056ZM280.697 470H281.775V467.116C281.775 464.932 283.063 463.798 284.645 463.798H284.729V462.636C283.357 462.58 282.307 463.448 281.775 464.652V462.762H280.697V470ZM290.75 470H295.104C297.246 470 298.66 469.006 298.66 467.326C298.66 465.954 297.722 465.282 296.56 464.932C297.33 464.596 298.114 463.938 298.114 462.664C298.114 462.006 297.89 461.488 297.484 461.068C296.938 460.508 296.042 460.2 294.922 460.2H290.75V470ZM291.842 464.568V461.194H294.824C296.224 461.194 296.994 461.824 296.994 462.79C296.994 463.966 296.07 464.568 294.74 464.568H291.842ZM291.842 469.006V465.548H294.936C296.644 465.548 297.54 466.164 297.54 467.228C297.54 468.348 296.616 469.006 295.132 469.006H291.842ZM300.952 470H302.058V460.2H300.952V470Z" fill="#2F3139"/>
<path d="M193.742 366.632L267.689 406.417C267.913 406.538 268.176 406.568 268.422 406.502L352.174 384.058C352.344 384.013 352.499 383.923 352.624 383.798L413.208 322.99C413.547 322.649 413.597 322.116 413.326 321.719L356.33 238.357C356.082 237.995 356.099 237.515 356.372 237.171L430.413 143.807C430.78 143.344 430.668 142.666 430.172 142.346L352.422 92.1131L268.454 50.1048C268.173 49.964 267.841 49.9639 267.56 50.1045L184.124 91.7828C183.958 91.8659 183.818 91.9939 183.72 92.1522L139.466 163.854L80.0036 237.343C79.8027 237.591 79.7325 237.92 79.8147 238.229L104.67 331.617C104.752 331.926 104.977 332.177 105.275 332.292L193.742 366.632Z" fill="url(#paint0_radial_864_6658)"/>
<defs>
<radialGradient id="paint0_radial_864_6658" cx="0" cy="0" r="1" gradientUnits="userSpaceOnUse" gradientTransform="translate(255.391 228.243) rotate(90) scale(178.362 175.707)">
<stop stop-color="#FF8A00"/>
<stop offset="1" stop-color="#FFDD88" stop-opacity="0.74"/>
</radialGradient>
</defs>
</svg>
