<svg width="345" height="326" viewBox="0 0 345 326" fill="none" xmlns="http://www.w3.org/2000/svg">
<g clip-path="url(#clip0_842_6667)">
<path d="M211.636 111.411H350.424C352.072 111.411 353.653 112.066 354.818 113.23C355.983 114.395 356.638 115.975 356.638 117.622V323.14C356.638 323.739 356.4 324.314 355.976 324.737C355.553 325.16 354.978 325.398 354.379 325.398H205.424V117.622C205.424 115.975 206.078 114.395 207.243 113.231C208.408 112.066 209.988 111.412 211.636 111.411Z" fill="#00AAFF"/>
<path d="M145.688 154.717H265.05C266.698 154.717 268.279 155.371 269.444 156.536C270.609 157.701 271.264 159.28 271.264 160.927V325.999H139.474V160.924C139.475 159.277 140.13 157.698 141.295 156.534C142.461 155.371 144.04 154.717 145.688 154.717Z" fill="#FEE500"/>
<path d="M71.9704 221.153H173.103C174.751 221.153 176.332 221.808 177.497 222.972C178.662 224.137 179.317 225.717 179.317 227.364V325.398H68.0157C67.7191 325.398 67.4254 325.34 67.1513 325.226C66.8772 325.113 66.6282 324.947 66.4184 324.737C66.2087 324.527 66.0423 324.278 65.9288 324.004C65.8153 323.731 65.7568 323.437 65.7568 323.14V227.364C65.7568 225.717 66.4115 224.137 67.5767 222.972C68.742 221.808 70.3225 221.153 71.9704 221.153Z" fill="#00AAFF"/>
<path d="M6.57586 261.835H107.709C109.357 261.835 110.937 262.489 112.103 263.654C113.268 264.818 113.922 266.398 113.922 268.045V325.399H2.6212C2.32445 325.399 2.03061 325.341 1.75646 325.227C1.48232 325.114 1.23324 324.947 1.02347 324.738C0.813694 324.528 0.647331 324.279 0.533886 324.005C0.420442 323.731 0.362137 323.437 0.362305 323.14V268.045C0.362305 266.398 1.01695 264.818 2.18221 263.654C3.34748 262.489 4.92792 261.835 6.57586 261.835Z" fill="#FEE500"/>
<path d="M268.128 105.25H263.828L257.068 85.3742L275.859 84.2332L268.128 105.25Z" fill="#EAD51F"/>
<path d="M245.629 48.4476C245.607 50.1247 245.607 82.9709 262.289 88.3046C278.971 93.6384 286.506 65.8414 285.912 46.0583L245.629 48.4476Z" fill="#FEE500"/>
<path d="M279.313 108.265H252.643V111.502H279.313V108.265Z" fill="#F9EB6D"/>
<path d="M279.313 108.265H252.643L259.393 104.647H272.563L279.313 108.265Z" fill="#F0DB21"/>
<path d="M243.696 43.7865C242.231 43.8759 241.033 44.9595 241.033 46.1949V48.7208C241.033 49.9563 242.232 50.902 243.697 50.8242L289.411 48.3647C290.876 48.2856 292.075 47.216 292.075 45.9754V43.0897C292.075 41.8555 290.877 40.9199 289.412 41.0054L243.696 43.7865Z" fill="#FFEF5A"/>
<path d="M274.103 90.9148C273.037 90.9148 272.118 90.2421 271.994 89.3296C271.866 88.3493 272.697 87.4623 273.863 87.35C274.086 87.3283 289.427 85.7086 290.882 77.3155C291.127 75.9001 291.099 74.052 289.577 73.2811C288.321 72.6429 286.257 72.8459 284.793 73.7508C283.956 74.2613 283.041 75.1675 283.43 76.5395C283.702 77.5006 282.999 78.4642 281.857 78.694C280.715 78.9237 279.569 78.3302 279.297 77.3704C278.591 74.8816 279.708 72.4502 282.283 70.8612C285.145 69.0998 289.051 68.8331 291.77 70.2128C293.362 71.0194 295.91 73.082 295.09 77.8286C294.276 82.5204 290.356 86.2804 283.752 88.6991C280.713 89.7903 277.558 90.5287 274.35 90.8994C274.266 90.9109 274.184 90.9148 274.103 90.9148Z" fill="#FFEF5A"/>
<path d="M258.191 90.9148C259.256 90.9148 260.176 90.2421 260.3 89.3296C260.427 88.3493 259.596 87.4623 258.43 87.35C258.209 87.3283 242.867 85.7086 241.412 77.3155C241.167 75.9001 241.194 74.052 242.716 73.2811C243.973 72.6429 246.03 72.8459 247.501 73.7508C248.337 74.2613 249.253 75.1675 248.863 76.5395C248.591 77.5006 249.295 78.4642 250.438 78.694C251.581 78.9237 252.725 78.3302 252.992 77.3704C253.698 74.8816 252.582 72.4502 250.005 70.8612C247.143 69.0998 243.237 68.8331 240.519 70.2128C238.926 71.0194 236.379 73.082 237.199 77.8286C238.012 82.5204 241.932 86.2804 248.536 88.6991C251.576 89.7903 254.73 90.5287 257.939 90.8994C258.029 90.9109 258.108 90.9148 258.191 90.9148Z" fill="#FFEF5A"/>
<path d="M105.724 136.736L96.8777 150.339C100.993 158.352 105.561 162.776 110.137 164.879C110.953 159.887 113.871 155.743 116.011 153.281C107.855 148.643 105.724 136.736 105.724 136.736Z" fill="#00AAFF"/>
<path d="M136.118 150.839C127.061 156.2 120.588 155.882 116.013 153.281C113.871 155.743 110.953 159.887 110.139 164.879C124.675 171.564 139.232 154.737 139.232 154.737L136.118 150.839Z" fill="#FB9390"/>
<path d="M136.616 153.169C136.616 153.169 134.171 148.908 137.687 145.638C137.687 145.638 138.821 144.345 140.065 146.245C140.065 146.245 143.849 142.813 144.883 144.195C145.917 145.577 148.659 149.001 145.981 152.906C143.268 156.853 137.805 155.1 136.616 153.169Z" fill="url(#paint0_linear_842_6667)"/>
<path d="M140.328 150.797C139.947 150.807 139.571 150.714 139.238 150.528C138.904 150.33 138.484 149.918 138.377 149.075C138.37 149.018 138.374 148.959 138.389 148.903C138.404 148.847 138.43 148.795 138.466 148.749C138.501 148.703 138.546 148.665 138.596 148.636C138.646 148.607 138.702 148.588 138.76 148.581C138.817 148.574 138.876 148.578 138.932 148.593C138.988 148.608 139.04 148.634 139.086 148.67C139.132 148.705 139.171 148.749 139.199 148.8C139.228 148.85 139.247 148.906 139.254 148.963C139.305 149.36 139.447 149.623 139.687 149.766C140.023 149.966 140.522 149.926 140.893 149.845L140.036 147.129C140.001 147.017 140.011 146.896 140.066 146.792C140.12 146.688 140.213 146.61 140.325 146.575C140.437 146.539 140.558 146.55 140.662 146.604C140.766 146.658 140.845 146.752 140.88 146.864L141.872 150.01C141.906 150.116 141.899 150.231 141.852 150.332C141.804 150.434 141.72 150.513 141.617 150.555C141.204 150.709 140.769 150.791 140.328 150.797Z" fill="#F79E6D"/>
<path d="M7.93574 242.191C7.14787 242.664 6.74564 243.662 6.93335 244.64C7.67142 248.486 10.0989 258.645 15.9996 264.659C16.0823 264.749 16.1826 264.82 16.2943 264.869C16.4059 264.918 16.5264 264.943 16.6482 264.943C16.7701 264.943 16.8906 264.918 17.0022 264.869C17.1139 264.82 17.2142 264.749 17.2969 264.659C15.8042 263.105 13.9539 260.447 11.7895 255.934C8.45928 249.003 7.84252 244.726 7.93574 242.191Z" fill="#1187C2"/>
<path d="M15.5477 242.048C15.5477 242.048 11.7463 239.982 7.96146 242.176L7.93593 242.193C7.84271 244.728 8.45946 249.005 11.7846 255.941C13.9554 260.454 15.7993 263.111 17.292 264.666C17.4086 264.544 17.4933 264.395 17.5384 264.233C18.6455 260.386 20.9836 249.701 15.5477 242.048Z" fill="#2F3139"/>
<path d="M21.0385 242.287L17.5908 245.59C17.296 245.875 16.9128 246.051 16.5043 246.09C16.0958 246.129 15.6863 246.027 15.3434 245.802C14.5575 245.274 13.9477 244.523 13.5927 243.646C13.4594 243.327 13.4198 242.977 13.4786 242.637C13.5374 242.296 13.6922 241.979 13.9247 241.724L17.3635 237.942C17.5545 237.732 17.7921 237.57 18.0572 237.469C18.3223 237.367 18.6075 237.33 18.8898 237.359C19.1722 237.387 19.4438 237.482 19.6828 237.635C19.9218 237.788 20.1216 237.995 20.266 238.239L21.3411 240.057C21.5494 240.408 21.6329 240.82 21.5779 241.224C21.523 241.629 21.3329 242.003 21.0385 242.287Z" fill="url(#paint1_linear_842_6667)"/>
<path d="M132.376 225.716C133.177 226.167 134.243 226.022 135 225.377C137.981 222.834 145.617 215.705 147.934 207.609C147.971 207.493 147.984 207.37 147.972 207.249C147.959 207.128 147.922 207.011 147.862 206.905C147.802 206.799 147.721 206.706 147.623 206.633C147.526 206.56 147.414 206.507 147.296 206.479C146.682 208.544 145.285 211.466 142.43 215.577C138.041 221.895 134.625 224.544 132.376 225.716Z" fill="#1187C2"/>
<path d="M128.488 219.171C128.488 219.171 128.57 223.495 132.347 225.701C132.356 225.706 132.366 225.711 132.376 225.715C134.625 224.543 138.041 221.893 142.43 215.576C145.285 211.465 146.682 208.543 147.296 206.478C147.133 206.437 146.961 206.437 146.798 206.478C142.906 207.417 132.458 210.666 128.488 219.171Z" fill="#2F3139"/>
<path d="M128.223 212.012L131.821 215.146C132.132 215.414 132.342 215.779 132.417 216.182C132.492 216.586 132.427 217.002 132.234 217.364C131.778 218.194 131.084 218.869 130.24 219.3C129.935 219.461 129.589 219.532 129.245 219.504C128.9 219.476 128.571 219.35 128.296 219.142L124.221 216.056C123.995 215.884 123.812 215.662 123.687 215.408C123.562 215.153 123.499 214.872 123.503 214.589C123.506 214.305 123.577 214.026 123.708 213.775C123.839 213.523 124.027 213.306 124.258 213.14L125.973 211.908C126.305 211.669 126.708 211.549 127.116 211.568C127.524 211.587 127.914 211.744 128.223 212.012Z" fill="url(#paint2_linear_842_6667)"/>
<path d="M56.0033 180.289C56.0033 180.289 48.9802 204.206 44.4382 214.718C44.4382 214.718 36.5008 215.928 31.5871 218.802C26.6735 221.677 16.0916 237.574 16.0916 237.574C16.0916 237.574 18.8548 242.819 22.1902 243.623L52.3156 222.76L76.3589 194.809L75.2174 181.846L56.0033 180.289Z" fill="#2F3139"/>
<path d="M56.4362 178.339L54.3816 184.888C54.3816 184.888 56.2612 202.058 77.918 199.163C99.5748 196.269 102.297 192.733 102.297 192.733C102.297 192.733 100.418 203.7 124.098 216.885C124.098 216.885 127.698 214.169 128.49 211.084L111.89 183.745C109.581 180.16 107.441 179.216 103.226 179.874C93.9039 181.331 76.4546 183.23 73.814 182.779L56.4362 178.339Z" fill="#2F3139"/>
<path d="M73.3503 129.638C67.0384 129.959 57.0617 132.957 50.6208 138.887C52.6014 141.073 55.6494 144.63 57.9211 148.136C59.9514 146.231 62.8666 144.644 66.9707 143.628C63.4208 156.887 59.2338 169.508 54.1171 181.245C54.0405 181.418 54.0007 181.605 53.9999 181.794C53.9992 181.983 54.0377 182.17 54.1129 182.344C54.1881 182.517 54.2984 182.673 54.4369 182.802C54.5755 182.931 54.7392 183.03 54.9177 183.092C58.8762 184.469 70.5333 187.751 79.8856 182.468L100.622 152.791C102.851 149.599 104.317 145.938 104.906 142.09L105.724 136.73C105.724 136.73 87.1015 128.935 73.3503 129.638Z" fill="#37BCFF"/>
<path d="M62.0434 174.546C61.1419 172.557 58.0568 170.699 56.5832 169.9C55.3063 167.261 50.1896 155.391 57.9202 148.136C55.6485 144.626 52.6005 141.073 50.6199 138.887C43.1844 145.729 40.4619 156.477 53.5007 171.526C52.7894 175.227 55.1109 179.548 56.3674 180.153C56.9446 180.431 63.2386 177.189 62.0434 174.546Z" fill="url(#paint3_linear_842_6667)"/>
<path d="M87.356 121.756L81.9392 132.349C81.7775 132.665 81.7153 133.022 81.7609 133.374C81.8065 133.725 81.9577 134.055 82.1946 134.319C83.506 135.779 86.6039 138.148 91.9938 136.45C92.2846 136.355 92.5431 136.181 92.7397 135.947C92.9363 135.713 93.0632 135.428 93.106 135.125L94.5106 125.499L87.356 121.756Z" fill="url(#paint4_linear_842_6667)"/>
<path d="M96.393 109.448C96.393 109.448 99.57 116.744 99.7833 120.574C99.9965 124.404 100.818 126.893 96.393 127.659C91.9684 128.425 88.2309 126.224 86.2095 122.409C86.2095 122.409 83.0427 116.538 83.7527 114.125C84.4626 111.711 96.393 109.448 96.393 109.448Z" fill="url(#paint5_linear_842_6667)"/>
<path d="M87.7183 119.666L87.9737 119.555C88.0499 119.522 88.1184 119.474 88.1751 119.413C88.2318 119.352 88.2754 119.281 88.3033 119.202C88.3312 119.124 88.3427 119.041 88.3372 118.958C88.3317 118.875 88.3092 118.795 88.2713 118.721C87.6468 117.515 86.4286 114.75 88.0018 114.105C90.0296 113.275 98.0589 111.637 99.7917 108.79C101.452 106.052 99.982 102.519 97.764 101.515C97.6938 101.481 97.6135 101.476 97.5394 101.499C97.4654 101.523 97.4032 101.574 97.3656 101.642L97.1804 101.992C97.1524 102.045 97.1091 102.088 97.0563 102.116C97.0035 102.145 96.9434 102.157 96.8838 102.151C96.8241 102.145 96.7677 102.121 96.7216 102.083C96.6755 102.044 96.6418 101.993 96.6249 101.936C96.6094 101.88 96.5779 101.83 96.5344 101.792C96.4908 101.753 96.437 101.729 96.3796 101.72C96.3223 101.712 96.2637 101.721 96.2111 101.745C96.1585 101.77 96.1142 101.809 96.0835 101.858C95.551 102.709 94.1132 104.091 90.2671 104.8C84.8031 105.808 81.1894 108.019 81.1 111.793C81.1005 111.847 81.0863 111.901 81.0587 111.948C81.0311 111.995 80.9913 112.034 80.9435 112.06C80.8956 112.086 80.8416 112.099 80.787 112.097C80.7325 112.095 80.6796 112.078 80.6339 112.048C80.2304 111.802 79.5855 111.687 78.7185 112.412C77.2168 113.673 77.8311 116.945 81.1217 119.637C81.1587 119.666 81.1883 119.703 81.2083 119.745C81.2282 119.788 81.2379 119.834 81.2365 119.881C81.2352 119.928 81.2228 119.974 81.2004 120.015C81.178 120.056 81.1462 120.092 81.1077 120.118C80.5113 120.501 79.6213 121.43 81.9249 122.661C84.3089 123.937 86.0877 123.83 86.7772 123.716C86.8174 123.709 86.8557 123.694 86.8899 123.672C86.9241 123.65 86.9535 123.621 86.9762 123.588C86.9989 123.554 87.0144 123.516 87.0219 123.476C87.0295 123.436 87.0287 123.395 87.0199 123.355L86.2882 120.037C86.2787 119.993 86.2791 119.947 86.2895 119.903C86.2999 119.859 86.32 119.818 86.3482 119.783C86.3765 119.748 86.4123 119.72 86.4529 119.7C86.4936 119.681 86.5381 119.67 86.5832 119.67L87.7183 119.666Z" fill="#2F3139"/>
<path d="M87.8552 120.367C87.8552 120.367 86.6434 115.707 84.553 117.013C82.4627 118.319 85.6384 122.234 87.3189 122.409L87.8552 120.367Z" fill="url(#paint6_linear_842_6667)"/>
</g>
<defs>
<linearGradient id="paint0_linear_842_6667" x1="18012.3" y1="21461.5" x2="12099" y2="24306.8" gradientUnits="userSpaceOnUse">
<stop stop-color="#FEBBBA"/>
<stop offset="1" stop-color="#FF928E"/>
</linearGradient>
<linearGradient id="paint1_linear_842_6667" x1="4593.39" y1="22938.2" x2="5112.54" y2="22938.2" gradientUnits="userSpaceOnUse">
<stop stop-color="#FEBBBA"/>
<stop offset="1" stop-color="#FF928E"/>
</linearGradient>
<linearGradient id="paint2_linear_842_6667" x1="12863" y1="19193.6" x2="13489.6" y2="19193.6" gradientUnits="userSpaceOnUse">
<stop stop-color="#FEBBBA"/>
<stop offset="1" stop-color="#FF928E"/>
</linearGradient>
<linearGradient id="paint3_linear_842_6667" x1="16591.9" y1="84088.8" x2="2205.13" y2="73117.7" gradientUnits="userSpaceOnUse">
<stop stop-color="#FEBBBA"/>
<stop offset="1" stop-color="#FF928E"/>
</linearGradient>
<linearGradient id="paint4_linear_842_6667" x1="14439.7" y1="27619.2" x2="15006" y2="26270.3" gradientUnits="userSpaceOnUse">
<stop stop-color="#FEBBBA"/>
<stop offset="1" stop-color="#FF928E"/>
</linearGradient>
<linearGradient id="paint5_linear_842_6667" x1="19964.9" y1="29647.2" x2="17447.5" y2="31360.7" gradientUnits="userSpaceOnUse">
<stop stop-color="#FEBBBA"/>
<stop offset="1" stop-color="#FF928E"/>
</linearGradient>
<linearGradient id="paint6_linear_842_6667" x1="4871.39" y1="9039.01" x2="4176.05" y2="9416.36" gradientUnits="userSpaceOnUse">
<stop stop-color="#FEBBBA"/>
<stop offset="1" stop-color="#FF928E"/>
</linearGradient>
<clipPath id="clip0_842_6667">
<rect width="345" height="326" fill="white"/>
</clipPath>
</defs>
</svg>
