<svg width="307" height="327" viewBox="0 0 307 327" fill="none" xmlns="http://www.w3.org/2000/svg">
<g clip-path="url(#clip0_842_6710)">
<path d="M290.815 98.1913L28.3041 93.4195C17.7359 93.2278 9.25264 102.978 9.88131 114.598L18.9167 281.759C19.4109 290.907 26.2519 298.074 34.5733 298.162L286.91 300.846C293.142 300.913 298.291 295.506 298.529 288.648L304.566 114.185C304.865 105.551 298.66 98.3348 290.815 98.1913Z" fill="#0894DA"/>
<path d="M281.648 110.987L37.4498 106.733C27.6174 106.562 19.7268 115.254 20.3139 125.617L28.7195 274.64C29.1798 282.796 35.5431 289.185 43.2839 289.264L278.014 291.656C283.809 291.715 288.602 286.896 288.823 280.781L294.441 125.245C294.718 117.548 288.948 111.114 281.648 110.987Z" fill="#AEE3FD"/>
<path opacity="0.53" d="M210.037 126.101H281.628C281.777 126.101 281.898 126.231 281.898 126.392V132.653C281.898 132.813 281.777 132.943 281.628 132.943H210.037C209.888 132.943 209.767 132.813 209.767 132.653V126.392C209.767 126.231 209.888 126.101 210.037 126.101Z" fill="white"/>
<path opacity="0.53" d="M164.411 132.542L189.201 132.613C189.27 132.613 189.336 132.583 189.385 132.531C189.434 132.479 189.461 132.408 189.461 132.334L189.477 126.05C189.477 125.976 189.45 125.904 189.401 125.852C189.352 125.8 189.287 125.77 189.218 125.77L164.427 125.7C164.393 125.7 164.36 125.707 164.328 125.721C164.297 125.735 164.268 125.755 164.244 125.781C164.22 125.807 164.2 125.837 164.187 125.871C164.174 125.905 164.167 125.941 164.167 125.978L164.152 132.262C164.152 132.336 164.179 132.407 164.228 132.46C164.276 132.512 164.342 132.542 164.411 132.542V132.542Z" fill="white"/>
<path opacity="0.53" d="M109.382 125.547L158.543 125.686C158.771 125.686 158.955 125.885 158.954 126.13L158.94 132.085C158.939 132.33 158.754 132.528 158.526 132.528L109.365 132.389C109.138 132.389 108.954 132.19 108.954 131.945L108.969 125.99C108.969 125.745 109.154 125.547 109.382 125.547Z" fill="white"/>
<path opacity="0.53" d="M262.608 137.856L281.119 137.908C281.346 137.909 281.531 138.108 281.53 138.353L281.515 144.308C281.515 144.553 281.33 144.751 281.102 144.75L262.591 144.698C262.363 144.697 262.179 144.498 262.18 144.253L262.194 138.298C262.195 138.053 262.38 137.855 262.608 137.856Z" fill="white"/>
<path opacity="0.53" d="M209.419 137.718L261.336 137.864C261.485 137.865 261.606 137.995 261.605 138.155L261.59 144.416C261.59 144.577 261.469 144.707 261.319 144.706L209.402 144.56C209.253 144.559 209.133 144.429 209.133 144.269L209.148 138.008C209.149 137.847 209.27 137.718 209.419 137.718Z" fill="white"/>
<path opacity="0.53" d="M164.178 144.579L188.968 144.649C189.002 144.649 189.036 144.642 189.068 144.628C189.099 144.614 189.128 144.594 189.152 144.568C189.176 144.542 189.196 144.512 189.209 144.478C189.222 144.444 189.229 144.408 189.229 144.371L189.244 138.087C189.244 138.013 189.217 137.942 189.168 137.889C189.12 137.837 189.054 137.807 188.985 137.807L164.198 137.732C164.129 137.732 164.063 137.761 164.014 137.813C163.965 137.865 163.938 137.936 163.937 138.01L163.922 144.295C163.922 144.331 163.928 144.368 163.94 144.402C163.953 144.436 163.971 144.468 163.995 144.494C164.019 144.52 164.047 144.542 164.079 144.556C164.11 144.571 164.144 144.579 164.178 144.579Z" fill="white"/>
<path opacity="0.53" d="M68.41 144.308L140.811 144.513C140.92 144.513 141.025 144.467 141.102 144.384C141.18 144.301 141.224 144.189 141.224 144.071L141.239 138.115C141.239 138.057 141.228 137.999 141.208 137.945C141.187 137.891 141.157 137.842 141.119 137.801C141.08 137.76 141.035 137.727 140.985 137.705C140.935 137.682 140.882 137.67 140.827 137.67L68.4264 137.466C68.3723 137.466 68.3187 137.477 68.2686 137.499C68.2185 137.521 68.173 137.554 68.1347 137.595C68.0963 137.636 68.0658 137.685 68.0449 137.738C68.0241 137.792 68.0133 137.85 68.0132 137.908L67.9989 143.863C67.9986 143.921 68.0091 143.979 68.0296 144.033C68.0501 144.087 68.0804 144.136 68.1186 144.177C68.1568 144.219 68.2022 144.251 68.2522 144.274C68.3022 144.296 68.3559 144.308 68.41 144.308V144.308Z" fill="white"/>
<path opacity="0.53" d="M262.592 149.875L281.104 149.928C281.331 149.928 281.515 150.127 281.515 150.372L281.5 156.327C281.5 156.572 281.315 156.77 281.087 156.769L262.576 156.717C262.348 156.717 262.164 156.518 262.165 156.273L262.179 150.318C262.18 150.073 262.365 149.875 262.592 149.875Z" fill="white"/>
<path opacity="0.53" d="M209.396 156.579L261.312 156.726C261.348 156.726 261.383 156.719 261.416 156.704C261.449 156.69 261.479 156.668 261.504 156.641C261.529 156.614 261.549 156.582 261.563 156.547C261.577 156.511 261.584 156.474 261.584 156.435L261.599 150.174C261.599 150.098 261.571 150.024 261.52 149.969C261.47 149.914 261.401 149.883 261.33 149.883L209.413 149.736C209.341 149.736 209.272 149.766 209.221 149.821C209.17 149.875 209.142 149.949 209.141 150.026L209.126 156.287C209.126 156.364 209.155 156.438 209.205 156.493C209.256 156.548 209.325 156.579 209.396 156.579V156.579Z" fill="white"/>
<path opacity="0.53" d="M164.167 156.599L188.957 156.669C189.026 156.669 189.092 156.64 189.141 156.588C189.19 156.536 189.217 156.465 189.218 156.391L189.233 150.106C189.233 150.032 189.206 149.961 189.157 149.909C189.109 149.856 189.043 149.827 188.974 149.826L164.183 149.757C164.149 149.757 164.116 149.764 164.084 149.778C164.053 149.792 164.024 149.812 164 149.838C163.976 149.863 163.956 149.894 163.943 149.928C163.93 149.962 163.923 149.998 163.923 150.034L163.908 156.319C163.908 156.393 163.935 156.464 163.984 156.516C164.032 156.569 164.098 156.599 164.167 156.599V156.599Z" fill="white"/>
<path opacity="0.53" d="M37.2269 156.239L131.821 156.507C131.875 156.507 131.928 156.496 131.978 156.474C132.028 156.452 132.074 156.419 132.112 156.378C132.151 156.337 132.181 156.288 132.202 156.235C132.223 156.181 132.234 156.123 132.234 156.065L132.248 150.11C132.248 150.052 132.238 149.994 132.217 149.94C132.197 149.886 132.167 149.837 132.129 149.796C132.091 149.755 132.045 149.722 131.996 149.699C131.946 149.677 131.892 149.665 131.838 149.665L37.2444 149.397C37.1903 149.397 37.1367 149.408 37.0866 149.43C37.0365 149.453 36.991 149.485 36.9527 149.526C36.9143 149.567 36.8838 149.616 36.8629 149.67C36.8421 149.723 36.8313 149.781 36.8312 149.839L36.8158 155.796C36.8157 155.854 36.8262 155.911 36.8468 155.965C36.8674 156.019 36.8977 156.068 36.9359 156.109C36.9741 156.15 37.0194 156.183 37.0694 156.205C37.1193 156.228 37.1729 156.239 37.2269 156.239V156.239Z" fill="white"/>
<path opacity="0.53" d="M262.388 168.754L280.901 168.807C280.955 168.807 281.009 168.795 281.059 168.773C281.109 168.751 281.154 168.719 281.192 168.677C281.231 168.636 281.261 168.588 281.282 168.534C281.302 168.48 281.313 168.422 281.313 168.364L281.328 162.408C281.328 162.291 281.285 162.178 281.208 162.094C281.131 162.011 281.027 161.964 280.917 161.963L262.405 161.912C262.351 161.912 262.297 161.923 262.247 161.945C262.197 161.967 262.151 162 262.113 162.041C262.075 162.082 262.044 162.131 262.023 162.184C262.002 162.238 261.992 162.296 261.992 162.354L261.977 168.309C261.977 168.367 261.988 168.425 262.008 168.479C262.029 168.533 262.059 168.582 262.097 168.623C262.135 168.664 262.181 168.697 262.231 168.719C262.281 168.742 262.334 168.753 262.388 168.754V168.754Z" fill="white"/>
<path opacity="0.53" d="M209.11 161.775L261.027 161.921C261.176 161.922 261.297 162.052 261.297 162.212L261.281 168.473C261.281 168.634 261.16 168.763 261.011 168.763L209.094 168.617C208.944 168.616 208.824 168.486 208.824 168.326L208.839 162.065C208.84 161.904 208.961 161.775 209.11 161.775Z" fill="white"/>
<path opacity="0.53" d="M163.934 168.636L188.724 168.707C188.793 168.707 188.859 168.677 188.908 168.625C188.957 168.573 188.984 168.502 188.985 168.428L189 162.143C189 162.069 188.973 161.998 188.924 161.946C188.876 161.893 188.81 161.864 188.741 161.863L163.95 161.793C163.882 161.793 163.816 161.822 163.767 161.874C163.718 161.927 163.691 161.998 163.69 162.072L163.675 168.356C163.675 168.43 163.702 168.501 163.751 168.554C163.799 168.606 163.865 168.636 163.934 168.636V168.636Z" fill="white"/>
<path opacity="0.53" d="M36.6967 168.275L131.288 168.548C131.342 168.548 131.396 168.537 131.446 168.515C131.496 168.492 131.541 168.46 131.579 168.419C131.618 168.378 131.648 168.329 131.669 168.275C131.69 168.221 131.7 168.164 131.7 168.106L131.716 162.151C131.716 162.092 131.705 162.035 131.685 161.981C131.664 161.927 131.634 161.878 131.596 161.837C131.557 161.795 131.512 161.763 131.462 161.74C131.412 161.718 131.359 161.706 131.304 161.706L36.7109 161.438C36.6016 161.438 36.4968 161.484 36.4194 161.567C36.342 161.65 36.2982 161.763 36.2976 161.88L36.2834 167.836C36.2837 167.894 36.2946 167.952 36.3155 168.005C36.3365 168.059 36.367 168.107 36.4054 168.148C36.4438 168.189 36.4893 168.221 36.5393 168.243C36.5892 168.264 36.6427 168.275 36.6967 168.275V168.275Z" fill="white"/>
<path opacity="0.53" d="M262.417 181.251L280.928 181.302C280.982 181.303 281.036 181.291 281.086 181.269C281.136 181.247 281.182 181.214 281.22 181.173C281.258 181.132 281.289 181.084 281.31 181.03C281.331 180.976 281.341 180.918 281.341 180.86L281.356 174.905C281.356 174.847 281.346 174.789 281.325 174.735C281.305 174.682 281.275 174.633 281.236 174.591C281.198 174.55 281.153 174.517 281.103 174.495C281.053 174.472 281 174.461 280.946 174.461L262.433 174.408C262.324 174.408 262.219 174.454 262.142 174.537C262.064 174.62 262.021 174.732 262.02 174.85L262.006 180.806C262.006 180.864 262.016 180.922 262.037 180.976C262.057 181.03 262.088 181.079 262.126 181.12C262.164 181.161 262.209 181.194 262.259 181.217C262.309 181.239 262.363 181.251 262.417 181.251V181.251Z" fill="white"/>
<path opacity="0.53" d="M209.184 174.266L261.101 174.413C261.25 174.413 261.371 174.543 261.37 174.704L261.355 180.965C261.355 181.125 261.233 181.255 261.084 181.254L209.167 181.108C209.018 181.108 208.897 180.977 208.898 180.817L208.913 174.556C208.913 174.396 209.035 174.266 209.184 174.266Z" fill="white"/>
<path opacity="0.53" d="M163.979 181.126L188.769 181.197C188.803 181.197 188.837 181.19 188.869 181.176C188.9 181.162 188.929 181.142 188.953 181.116C188.977 181.09 188.996 181.059 189.009 181.026C189.023 180.992 189.029 180.956 189.03 180.919L189.045 174.633C189.045 174.597 189.039 174.561 189.026 174.527C189.013 174.493 188.994 174.462 188.97 174.436C188.946 174.41 188.917 174.39 188.886 174.376C188.855 174.362 188.821 174.355 188.787 174.355L163.995 174.284C163.927 174.284 163.861 174.313 163.813 174.365C163.764 174.417 163.737 174.488 163.736 174.562L163.72 180.847C163.72 180.921 163.747 180.992 163.796 181.044C163.844 181.097 163.91 181.126 163.979 181.126V181.126Z" fill="white"/>
<path opacity="0.53" d="M36.8551 180.766L131.449 181.034C131.503 181.035 131.556 181.023 131.607 181.001C131.657 180.979 131.702 180.946 131.741 180.905C131.779 180.864 131.809 180.815 131.83 180.762C131.851 180.708 131.862 180.65 131.862 180.592L131.876 174.637C131.877 174.579 131.866 174.521 131.846 174.467C131.825 174.413 131.795 174.364 131.757 174.323C131.718 174.281 131.673 174.249 131.623 174.226C131.573 174.204 131.519 174.192 131.465 174.192L36.8715 173.924C36.8174 173.924 36.7638 173.935 36.7137 173.958C36.6636 173.98 36.6181 174.012 36.5797 174.053C36.5413 174.094 36.5108 174.143 36.49 174.197C36.4692 174.251 36.4584 174.308 36.4582 174.366L36.444 180.322C36.4439 180.38 36.4544 180.438 36.475 180.491C36.4956 180.545 36.5258 180.594 36.564 180.635C36.6021 180.677 36.6475 180.71 36.6975 180.732C36.7474 180.754 36.801 180.766 36.8551 180.766V180.766Z" fill="white"/>
<path opacity="0.53" d="M262.232 193.281L280.743 193.334C280.798 193.334 280.851 193.323 280.901 193.3C280.951 193.278 280.997 193.246 281.035 193.205C281.074 193.164 281.104 193.115 281.125 193.061C281.146 193.007 281.157 192.95 281.157 192.892L281.171 186.936C281.171 186.878 281.161 186.82 281.141 186.766C281.12 186.712 281.09 186.663 281.052 186.622C281.013 186.581 280.968 186.548 280.918 186.525C280.868 186.503 280.814 186.492 280.76 186.492L262.248 186.439C262.194 186.439 262.141 186.45 262.091 186.472C262.041 186.494 261.995 186.527 261.957 186.568C261.918 186.609 261.888 186.658 261.867 186.712C261.846 186.765 261.835 186.823 261.835 186.881L261.821 192.836C261.821 192.895 261.831 192.952 261.851 193.006C261.872 193.06 261.902 193.109 261.94 193.151C261.978 193.192 262.024 193.225 262.074 193.247C262.124 193.27 262.178 193.281 262.232 193.281V193.281Z" fill="white"/>
<path opacity="0.53" d="M208.879 186.303L260.796 186.449C260.945 186.449 261.066 186.58 261.065 186.74L261.05 193.001C261.05 193.161 260.928 193.291 260.779 193.291L208.862 193.144C208.713 193.144 208.592 193.014 208.593 192.853L208.608 186.592C208.608 186.432 208.73 186.302 208.879 186.303Z" fill="white"/>
<path opacity="0.53" d="M163.747 193.163L188.538 193.234C188.607 193.234 188.673 193.204 188.721 193.152C188.77 193.1 188.798 193.029 188.798 192.955L188.813 186.671C188.813 186.634 188.807 186.598 188.794 186.564C188.781 186.53 188.762 186.499 188.738 186.473C188.714 186.447 188.686 186.426 188.654 186.412C188.623 186.398 188.589 186.391 188.555 186.391L163.764 186.321C163.73 186.321 163.696 186.328 163.664 186.342C163.633 186.356 163.604 186.376 163.58 186.402C163.556 186.428 163.537 186.458 163.524 186.492C163.511 186.526 163.504 186.562 163.505 186.599L163.489 192.883C163.489 192.92 163.495 192.956 163.508 192.99C163.521 193.024 163.54 193.055 163.564 193.081C163.588 193.107 163.617 193.128 163.648 193.142C163.679 193.156 163.713 193.163 163.747 193.163V193.163Z" fill="white"/>
<path opacity="0.53" d="M100.74 192.984L158.375 193.148C158.429 193.148 158.482 193.137 158.533 193.115C158.583 193.093 158.628 193.06 158.667 193.019C158.705 192.978 158.736 192.929 158.756 192.875C158.777 192.822 158.788 192.764 158.788 192.706L158.803 186.751C158.803 186.692 158.793 186.635 158.772 186.581C158.752 186.527 158.721 186.478 158.683 186.437C158.645 186.395 158.6 186.363 158.55 186.34C158.5 186.318 158.446 186.306 158.392 186.306L100.757 186.143C100.703 186.142 100.649 186.154 100.599 186.176C100.549 186.198 100.503 186.23 100.465 186.272C100.426 186.313 100.396 186.361 100.375 186.415C100.354 186.469 100.344 186.527 100.343 186.585L100.329 192.54C100.329 192.598 100.339 192.656 100.36 192.71C100.38 192.764 100.41 192.813 100.448 192.854C100.487 192.896 100.532 192.929 100.582 192.951C100.632 192.973 100.686 192.985 100.74 192.984V192.984Z" fill="white"/>
<path opacity="0.53" d="M208.836 198.322L280.82 198.525C280.969 198.525 281.089 198.655 281.089 198.816L281.074 205.077C281.073 205.237 280.952 205.367 280.803 205.367L208.82 205.164C208.671 205.163 208.55 205.033 208.55 204.873L208.566 198.612C208.566 198.451 208.687 198.321 208.836 198.322Z" fill="white"/>
<path opacity="0.53" d="M163.736 205.183L188.527 205.253C188.561 205.254 188.594 205.246 188.626 205.233C188.657 205.219 188.686 205.198 188.71 205.173C188.734 205.147 188.754 205.116 188.767 205.082C188.78 205.049 188.787 205.012 188.787 204.976L188.802 198.69C188.802 198.654 188.796 198.617 188.783 198.584C188.77 198.55 188.751 198.519 188.727 198.493C188.703 198.467 188.675 198.447 188.643 198.433C188.612 198.419 188.578 198.411 188.544 198.411L163.753 198.341C163.684 198.341 163.618 198.37 163.57 198.423C163.521 198.475 163.494 198.546 163.494 198.62L163.478 204.904C163.478 204.941 163.484 204.977 163.497 205.011C163.51 205.045 163.529 205.076 163.553 205.101C163.577 205.127 163.606 205.148 163.637 205.162C163.669 205.176 163.702 205.183 163.736 205.183Z" fill="white"/>
<path opacity="0.53" d="M73.1114 204.926L145.173 205.128C145.228 205.128 145.281 205.116 145.331 205.094C145.381 205.072 145.427 205.04 145.465 204.998C145.504 204.957 145.534 204.909 145.555 204.855C145.576 204.801 145.587 204.743 145.587 204.685L145.602 198.729C145.602 198.612 145.559 198.499 145.482 198.415C145.405 198.332 145.3 198.285 145.191 198.284L73.1311 198.081C73.077 198.081 73.0233 198.092 72.9733 198.114C72.9232 198.136 72.8777 198.169 72.8393 198.21C72.8009 198.251 72.7704 198.3 72.7496 198.354C72.7287 198.407 72.7179 198.465 72.7178 198.523L72.7036 204.478C72.703 204.536 72.7131 204.594 72.7333 204.648C72.7535 204.702 72.7833 204.752 72.8212 204.793C72.8591 204.835 72.9042 204.868 72.954 204.891C73.0038 204.914 73.0573 204.926 73.1114 204.926Z" fill="white"/>
<path opacity="0.53" d="M262.759 217.34L280.499 217.391C280.553 217.391 280.606 217.379 280.656 217.357C280.706 217.335 280.752 217.303 280.79 217.262C280.829 217.22 280.859 217.172 280.88 217.118C280.901 217.064 280.912 217.007 280.912 216.948L280.926 210.993C280.926 210.935 280.916 210.877 280.895 210.823C280.875 210.769 280.845 210.72 280.806 210.679C280.768 210.638 280.723 210.605 280.673 210.583C280.623 210.56 280.569 210.549 280.515 210.549L262.777 210.498C262.722 210.498 262.669 210.509 262.619 210.531C262.568 210.553 262.523 210.586 262.484 210.627C262.446 210.668 262.416 210.717 262.395 210.771C262.374 210.824 262.363 210.882 262.363 210.94L262.348 216.895C262.348 216.954 262.358 217.011 262.379 217.065C262.4 217.119 262.43 217.168 262.468 217.209C262.506 217.251 262.551 217.283 262.601 217.306C262.651 217.328 262.705 217.34 262.759 217.34Z" fill="white"/>
<path opacity="0.53" d="M208.55 217.199L260.466 217.347C260.502 217.347 260.537 217.34 260.57 217.325C260.603 217.311 260.633 217.289 260.658 217.262C260.683 217.235 260.703 217.203 260.717 217.168C260.731 217.133 260.738 217.095 260.738 217.056L260.753 210.796C260.753 210.757 260.746 210.72 260.733 210.684C260.719 210.649 260.7 210.617 260.675 210.59C260.65 210.563 260.62 210.541 260.587 210.526C260.555 210.512 260.519 210.504 260.484 210.504L208.567 210.357C208.495 210.357 208.426 210.387 208.375 210.442C208.325 210.496 208.296 210.57 208.296 210.647L208.28 216.908C208.28 216.946 208.287 216.984 208.301 217.019C208.314 217.055 208.334 217.087 208.359 217.114C208.384 217.141 208.414 217.162 208.447 217.177C208.48 217.191 208.515 217.199 208.55 217.199V217.199Z" fill="white"/>
<path opacity="0.53" d="M163.503 217.22L188.295 217.291C188.364 217.29 188.429 217.261 188.478 217.209C188.526 217.156 188.554 217.086 188.554 217.012L188.569 210.727C188.569 210.691 188.563 210.654 188.55 210.621C188.537 210.587 188.518 210.556 188.494 210.53C188.47 210.504 188.442 210.483 188.41 210.469C188.379 210.455 188.345 210.448 188.311 210.447L163.52 210.378C163.486 210.378 163.452 210.385 163.421 210.398C163.389 210.412 163.36 210.433 163.336 210.459C163.312 210.484 163.293 210.515 163.28 210.549C163.267 210.583 163.261 210.619 163.261 210.656L163.245 216.94C163.245 216.977 163.252 217.013 163.264 217.047C163.277 217.081 163.296 217.112 163.32 217.138C163.344 217.164 163.373 217.184 163.404 217.199C163.436 217.213 163.469 217.22 163.503 217.22V217.22Z" fill="white"/>
<path opacity="0.53" d="M36.1367 216.859L133.972 217.136C134.026 217.137 134.08 217.125 134.13 217.103C134.18 217.081 134.226 217.048 134.264 217.007C134.302 216.966 134.333 216.918 134.354 216.864C134.375 216.81 134.385 216.752 134.385 216.694L134.4 210.739C134.4 210.681 134.39 210.623 134.369 210.569C134.348 210.515 134.318 210.466 134.28 210.425C134.242 210.384 134.196 210.351 134.146 210.328C134.096 210.306 134.043 210.294 133.989 210.294L36.1542 210.017C36.1001 210.017 36.0465 210.028 35.9964 210.05C35.9464 210.072 35.9008 210.105 35.8625 210.146C35.8241 210.187 35.7936 210.236 35.7728 210.29C35.7519 210.343 35.7411 210.401 35.741 210.459L35.73 216.419C35.7303 216.535 35.7732 216.647 35.8493 216.729C35.9255 216.811 36.0288 216.858 36.1367 216.859Z" fill="white"/>
<path opacity="0.53" d="M262.345 253.261L280.856 253.314C280.91 253.314 280.964 253.303 281.014 253.28C281.064 253.258 281.109 253.226 281.148 253.185C281.186 253.144 281.217 253.095 281.238 253.041C281.258 252.987 281.269 252.93 281.269 252.872L281.285 246.915C281.285 246.798 281.241 246.685 281.164 246.602C281.087 246.518 280.983 246.471 280.874 246.471L262.361 246.419C262.307 246.419 262.253 246.43 262.203 246.452C262.153 246.474 262.108 246.507 262.069 246.548C262.031 246.589 262.001 246.638 261.98 246.692C261.959 246.745 261.948 246.803 261.948 246.861L261.934 252.816C261.933 252.874 261.944 252.932 261.965 252.986C261.985 253.04 262.015 253.089 262.054 253.13C262.092 253.171 262.137 253.204 262.187 253.227C262.237 253.249 262.291 253.261 262.345 253.261V253.261Z" fill="white"/>
<path opacity="0.53" d="M208.947 253.122L260.863 253.269C260.899 253.27 260.934 253.262 260.967 253.248C261 253.233 261.03 253.212 261.055 253.185C261.08 253.158 261.1 253.126 261.114 253.091C261.127 253.056 261.134 253.018 261.134 252.98L261.15 246.719C261.15 246.681 261.143 246.643 261.13 246.608C261.116 246.572 261.097 246.54 261.072 246.513C261.047 246.486 261.017 246.464 260.984 246.45C260.951 246.435 260.916 246.427 260.881 246.427L208.963 246.28C208.892 246.28 208.823 246.311 208.772 246.365C208.721 246.42 208.693 246.494 208.692 246.571L208.677 252.832C208.677 252.87 208.684 252.908 208.698 252.943C208.711 252.978 208.731 253.01 208.756 253.037C208.781 253.064 208.811 253.085 208.844 253.1C208.876 253.115 208.912 253.122 208.947 253.122Z" fill="white"/>
<path opacity="0.53" d="M163.86 253.143L188.651 253.214C188.72 253.214 188.786 253.185 188.834 253.132C188.883 253.08 188.91 253.009 188.91 252.935L188.927 246.651C188.927 246.577 188.899 246.506 188.851 246.453C188.802 246.401 188.736 246.371 188.668 246.371L163.877 246.3C163.808 246.3 163.742 246.33 163.694 246.382C163.645 246.434 163.617 246.505 163.617 246.579L163.602 252.863C163.602 252.9 163.608 252.936 163.621 252.97C163.634 253.004 163.653 253.035 163.677 253.061C163.701 253.087 163.729 253.108 163.761 253.122C163.792 253.136 163.826 253.143 163.86 253.143Z" fill="white"/>
<path opacity="0.53" d="M100.853 252.965L158.488 253.128C158.598 253.128 158.702 253.082 158.78 252.999C158.857 252.916 158.901 252.803 158.902 252.686L158.916 246.73C158.916 246.671 158.905 246.614 158.885 246.56C158.864 246.506 158.834 246.457 158.796 246.416C158.758 246.375 158.712 246.342 158.662 246.32C158.612 246.298 158.559 246.286 158.505 246.286L100.869 246.123C100.815 246.122 100.761 246.134 100.711 246.156C100.661 246.178 100.616 246.211 100.577 246.252C100.539 246.293 100.509 246.342 100.488 246.395C100.467 246.449 100.456 246.507 100.456 246.565L100.442 252.52C100.442 252.578 100.452 252.636 100.473 252.69C100.493 252.744 100.524 252.793 100.562 252.834C100.6 252.875 100.645 252.908 100.695 252.93C100.745 252.953 100.799 252.964 100.853 252.965V252.965Z" fill="white"/>
<path opacity="0.53" d="M208.924 258.302L280.907 258.505C281.057 258.505 281.177 258.636 281.177 258.796L281.162 265.057C281.161 265.217 281.04 265.347 280.891 265.347L208.908 265.144C208.759 265.143 208.638 265.013 208.638 264.853L208.654 258.592C208.654 258.431 208.775 258.302 208.924 258.302Z" fill="white"/>
<path opacity="0.53" d="M163.849 265.163L188.641 265.233C188.709 265.233 188.775 265.204 188.824 265.152C188.872 265.1 188.9 265.029 188.9 264.955L188.916 258.67C188.916 258.596 188.889 258.525 188.84 258.473C188.792 258.42 188.726 258.391 188.657 258.39L163.867 258.321C163.832 258.321 163.799 258.328 163.767 258.341C163.736 258.355 163.707 258.376 163.683 258.401C163.658 258.427 163.639 258.458 163.626 258.492C163.613 258.526 163.606 258.562 163.606 258.599L163.591 264.883C163.591 264.92 163.597 264.956 163.61 264.99C163.623 265.024 163.642 265.055 163.666 265.081C163.69 265.107 163.718 265.127 163.75 265.142C163.781 265.156 163.815 265.163 163.849 265.163V265.163Z" fill="white"/>
<path opacity="0.53" d="M73.2633 264.906L145.322 265.113C145.376 265.114 145.43 265.102 145.48 265.08C145.53 265.058 145.576 265.025 145.614 264.984C145.652 264.943 145.683 264.895 145.704 264.841C145.724 264.787 145.735 264.729 145.735 264.671L145.751 258.715C145.751 258.597 145.707 258.485 145.63 258.401C145.553 258.318 145.449 258.271 145.34 258.27L73.2808 258.067C73.2266 258.066 73.1729 258.077 73.1227 258.099C73.0725 258.121 73.0268 258.154 72.9884 258.195C72.95 258.236 72.9195 258.285 72.8987 258.339C72.878 258.393 72.8674 258.451 72.8675 258.509L72.8522 264.464C72.8528 264.581 72.8963 264.693 72.9733 264.776C73.0502 264.859 73.1545 264.906 73.2633 264.906V264.906Z" fill="white"/>
<path opacity="0.53" d="M262.873 277.32L280.611 277.371C280.72 277.371 280.825 277.324 280.903 277.241C280.98 277.158 281.024 277.046 281.024 276.928L281.039 270.972C281.039 270.914 281.028 270.856 281.008 270.802C280.987 270.748 280.957 270.7 280.919 270.658C280.88 270.617 280.835 270.584 280.785 270.562C280.735 270.539 280.682 270.528 280.627 270.528L262.889 270.478C262.835 270.478 262.781 270.489 262.731 270.511C262.681 270.533 262.635 270.566 262.597 270.607C262.559 270.648 262.528 270.697 262.507 270.751C262.487 270.804 262.476 270.862 262.476 270.92L262.462 276.875C262.461 276.934 262.472 276.991 262.493 277.045C262.513 277.099 262.543 277.148 262.582 277.189C262.62 277.231 262.665 277.263 262.715 277.286C262.765 277.308 262.819 277.32 262.873 277.32V277.32Z" fill="white"/>
<path opacity="0.53" d="M208.637 277.179L260.554 277.326C260.589 277.326 260.624 277.319 260.657 277.304C260.69 277.29 260.72 277.269 260.745 277.242C260.77 277.215 260.79 277.183 260.804 277.148C260.818 277.113 260.825 277.075 260.825 277.036L260.84 270.776C260.84 270.737 260.833 270.7 260.82 270.664C260.807 270.629 260.787 270.597 260.762 270.57C260.737 270.543 260.707 270.521 260.674 270.506C260.642 270.492 260.607 270.484 260.571 270.484L208.654 270.337C208.582 270.337 208.514 270.367 208.463 270.421C208.412 270.476 208.383 270.549 208.383 270.626L208.367 276.888C208.367 276.965 208.396 277.039 208.447 277.094C208.497 277.148 208.566 277.179 208.637 277.179V277.179Z" fill="white"/>
<path opacity="0.53" d="M163.616 277.2L188.408 277.271C188.476 277.271 188.542 277.241 188.591 277.189C188.64 277.137 188.668 277.066 188.668 276.992L188.683 270.707C188.683 270.633 188.656 270.562 188.607 270.51C188.559 270.457 188.493 270.428 188.424 270.427L163.634 270.357C163.565 270.357 163.499 270.386 163.45 270.438C163.401 270.491 163.374 270.562 163.373 270.636L163.358 276.92C163.358 276.957 163.364 276.993 163.377 277.027C163.39 277.061 163.409 277.092 163.433 277.118C163.457 277.144 163.485 277.165 163.517 277.179C163.548 277.193 163.582 277.2 163.616 277.2V277.2Z" fill="white"/>
<path opacity="0.53" d="M36.2899 276.839L134.124 277.117C134.233 277.117 134.338 277.07 134.416 276.987C134.493 276.904 134.537 276.792 134.538 276.674L134.552 270.718C134.552 270.66 134.541 270.602 134.521 270.548C134.5 270.494 134.47 270.445 134.432 270.404C134.394 270.363 134.348 270.33 134.298 270.308C134.248 270.285 134.195 270.274 134.141 270.273L36.3063 269.997C36.2522 269.997 36.1986 270.008 36.1485 270.03C36.0984 270.052 36.0529 270.085 36.0146 270.126C35.9762 270.167 35.9457 270.216 35.9248 270.27C35.904 270.323 35.8932 270.381 35.8931 270.439L35.8789 276.394C35.8786 276.453 35.889 276.51 35.9095 276.564C35.93 276.618 35.9603 276.667 35.9985 276.709C36.0367 276.75 36.0821 276.783 36.1321 276.805C36.1821 276.827 36.2358 276.839 36.2899 276.839V276.839Z" fill="white"/>
<path opacity="0.53" d="M263.648 223.012H281.386C281.614 223.012 281.798 223.21 281.798 223.455V229.41C281.798 229.655 281.614 229.854 281.386 229.854H263.648C263.42 229.854 263.236 229.655 263.236 229.41V223.455C263.236 223.21 263.42 223.012 263.648 223.012Z" fill="white"/>
<path opacity="0.53" d="M208.941 222.602L260.858 222.748C261.008 222.749 261.128 222.879 261.128 223.04L261.112 229.301C261.112 229.461 260.991 229.591 260.842 229.59L208.925 229.444C208.775 229.444 208.655 229.313 208.655 229.153L208.671 222.892C208.671 222.732 208.792 222.602 208.941 222.602Z" fill="white"/>
<path opacity="0.53" d="M163.769 229.463L188.561 229.534C188.595 229.534 188.628 229.527 188.66 229.513C188.691 229.499 188.72 229.478 188.744 229.453C188.768 229.427 188.787 229.396 188.8 229.362C188.813 229.329 188.82 229.293 188.82 229.256L188.835 222.97C188.835 222.934 188.829 222.898 188.816 222.864C188.803 222.83 188.784 222.799 188.76 222.773C188.736 222.747 188.707 222.727 188.676 222.713C188.645 222.699 188.611 222.692 188.577 222.692L163.787 222.621C163.718 222.621 163.652 222.65 163.603 222.703C163.554 222.755 163.527 222.826 163.526 222.9L163.511 229.184C163.511 229.221 163.517 229.257 163.53 229.291C163.543 229.325 163.562 229.356 163.586 229.382C163.61 229.408 163.638 229.428 163.67 229.442C163.701 229.456 163.735 229.463 163.769 229.463V229.463Z" fill="white"/>
<path opacity="0.53" d="M36.8618 229.104L134.696 229.381C134.75 229.381 134.804 229.37 134.854 229.348C134.904 229.326 134.95 229.293 134.988 229.252C135.027 229.211 135.057 229.162 135.078 229.108C135.099 229.054 135.109 228.997 135.109 228.938L135.124 222.983C135.124 222.925 135.113 222.868 135.093 222.814C135.073 222.76 135.042 222.711 135.004 222.67C134.966 222.628 134.921 222.595 134.871 222.573C134.821 222.551 134.768 222.539 134.714 222.539L36.8782 222.261C36.769 222.261 36.6642 222.308 36.5867 222.391C36.5093 222.473 36.4655 222.586 36.4649 222.703L36.4507 228.66C36.4507 228.777 36.4939 228.89 36.571 228.973C36.648 229.057 36.7526 229.104 36.8618 229.104V229.104Z" fill="white"/>
<path opacity="0.53" d="M262.789 234.779L280.528 234.829C280.755 234.83 280.939 235.029 280.939 235.274L280.924 241.229C280.924 241.474 280.739 241.672 280.511 241.671L262.773 241.621C262.545 241.621 262.361 241.421 262.361 241.177L262.376 235.222C262.377 234.977 262.562 234.779 262.789 234.779Z" fill="white"/>
<path opacity="0.53" d="M208.635 234.64L260.552 234.786C260.702 234.786 260.822 234.917 260.822 235.077L260.807 241.338C260.806 241.499 260.685 241.628 260.536 241.628L208.619 241.482C208.47 241.481 208.349 241.351 208.349 241.19L208.365 234.93C208.365 234.769 208.486 234.639 208.635 234.64Z" fill="white"/>
<path opacity="0.53" d="M163.536 241.5L188.328 241.571C188.396 241.571 188.462 241.541 188.511 241.489C188.56 241.437 188.587 241.366 188.587 241.292L188.603 235.008C188.603 234.934 188.576 234.862 188.527 234.81C188.479 234.758 188.413 234.728 188.344 234.728L163.554 234.658C163.52 234.658 163.486 234.665 163.454 234.679C163.423 234.692 163.394 234.713 163.37 234.739C163.346 234.764 163.326 234.795 163.313 234.829C163.3 234.863 163.294 234.899 163.294 234.936L163.278 241.22C163.278 241.257 163.284 241.293 163.297 241.327C163.31 241.361 163.329 241.392 163.353 241.418C163.377 241.444 163.406 241.465 163.437 241.479C163.468 241.493 163.502 241.5 163.536 241.5V241.5Z" fill="white"/>
<path opacity="0.53" d="M36.3141 241.14L134.148 241.417C134.203 241.417 134.256 241.405 134.306 241.383C134.356 241.361 134.402 241.329 134.44 241.288C134.479 241.247 134.509 241.198 134.53 241.144C134.551 241.09 134.562 241.033 134.562 240.974L134.576 235.019C134.576 234.961 134.566 234.903 134.545 234.85C134.524 234.796 134.494 234.747 134.456 234.705C134.418 234.664 134.372 234.631 134.322 234.609C134.273 234.586 134.219 234.575 134.165 234.575L36.3305 234.297C36.2212 234.297 36.1165 234.344 36.039 234.427C35.9616 234.509 35.9178 234.622 35.9172 234.739L35.903 240.696C35.9028 240.754 35.9133 240.812 35.9339 240.865C35.9545 240.919 35.9848 240.968 36.023 241.01C36.0611 241.051 36.1065 241.084 36.1564 241.106C36.2064 241.128 36.26 241.14 36.3141 241.14V241.14Z" fill="white"/>
<path opacity="0.53" d="M197.529 285.251L199.562 285.257C199.581 285.257 199.601 285.253 199.619 285.245C199.638 285.236 199.654 285.224 199.668 285.209C199.682 285.194 199.694 285.176 199.701 285.157C199.709 285.137 199.713 285.116 199.713 285.095L200.125 116.795C200.125 116.774 200.121 116.753 200.113 116.733C200.106 116.713 200.095 116.696 200.081 116.68C200.067 116.665 200.05 116.653 200.032 116.645C200.013 116.637 199.994 116.633 199.974 116.633L197.941 116.627C197.922 116.627 197.902 116.631 197.883 116.639C197.865 116.647 197.848 116.659 197.834 116.674C197.82 116.689 197.809 116.707 197.802 116.727C197.794 116.747 197.79 116.768 197.79 116.789L197.378 285.085C197.378 285.107 197.381 285.128 197.389 285.148C197.396 285.169 197.407 285.187 197.421 285.202C197.435 285.218 197.452 285.23 197.471 285.238C197.489 285.247 197.509 285.251 197.529 285.251Z" fill="white"/>
<path d="M131.088 315.696H271.608C271.911 315.689 272.212 315.747 272.494 315.866C272.776 315.986 273.033 316.165 273.249 316.393C273.466 316.621 273.638 316.893 273.755 317.194C273.873 317.494 273.933 317.817 273.933 318.143C273.933 318.469 273.873 318.791 273.755 319.092C273.638 319.392 273.466 319.664 273.249 319.892C273.033 320.12 272.776 320.299 272.494 320.419C272.212 320.539 271.911 320.597 271.608 320.59H131.088C130.493 320.576 129.927 320.312 129.511 319.854C129.095 319.397 128.862 318.783 128.862 318.143C128.862 317.503 129.095 316.888 129.511 316.431C129.927 315.974 130.493 315.71 131.088 315.696V315.696Z" fill="#0A96DC"/>
<path d="M150.992 290.817H251.705C253.163 290.817 254.561 291.44 255.592 292.549C256.623 293.658 257.202 295.162 257.202 296.731V315.696H145.494V296.731C145.494 295.954 145.636 295.185 145.912 294.467C146.189 293.75 146.594 293.098 147.104 292.549C147.615 291.999 148.221 291.564 148.888 291.267C149.555 290.97 150.27 290.817 150.992 290.817V290.817Z" fill="#00AAFF"/>
<path d="M158.443 280.249H244.254C244.976 280.249 245.691 280.402 246.358 280.7C247.026 280.997 247.632 281.433 248.142 281.983C248.653 282.532 249.058 283.185 249.334 283.903C249.61 284.621 249.752 285.39 249.751 286.167V290.82H152.945V286.167C152.944 285.39 153.086 284.621 153.362 283.903C153.638 283.185 154.043 282.532 154.554 281.982C155.065 281.433 155.671 280.997 156.338 280.699C157.006 280.402 157.721 280.249 158.443 280.249V280.249Z" fill="#0A96DC"/>
<path d="M225.813 249.077H176.883C176.516 249.077 176.164 249.234 175.905 249.513C175.645 249.792 175.499 250.171 175.499 250.566V280.249H227.197V250.566C227.197 250.171 227.051 249.792 226.791 249.513C226.532 249.234 226.18 249.077 225.813 249.077Z" fill="#00AAFF"/>
<path d="M275.965 131.345C277.123 130.047 278.708 129.288 280.38 129.233C282.051 129.177 283.677 129.829 284.907 131.047L291.248 137.332C292.479 138.55 293.216 140.239 293.302 142.036C293.388 143.833 292.816 145.594 291.708 146.942L207.303 250.493L189.609 232.968C189.269 232.63 188.994 232.223 188.802 231.77C188.61 231.317 188.504 230.827 188.491 230.329C188.477 229.831 188.557 229.335 188.724 228.871C188.891 228.406 189.143 227.983 189.465 227.624L275.965 131.345Z" fill="#33A4DB"/>
<path d="M269.305 152.429L271.175 154.281L219.776 214.328L217.906 212.476L269.305 152.429Z" fill="#D9F1FE"/>
<path d="M184.816 259.528C176.009 250.053 176.009 234.693 184.816 225.218C193.623 215.744 207.901 215.744 216.708 225.218C225.515 234.693 225.515 250.053 216.708 259.527C207.901 269.002 193.623 269.002 184.816 259.528Z" fill="#FEE500"/>
<path d="M188.582 255.476C181.855 248.239 181.855 236.506 188.582 229.27C195.309 222.033 206.215 222.033 212.942 229.27C219.669 236.506 219.67 248.239 212.942 255.476C206.215 262.713 195.309 262.713 188.582 255.476Z" fill="#D9F1FE"/>
<path d="M229.38 38.7593L223.49 42.6784C222.349 43.4395 221.53 44.6509 221.209 46.0534C220.887 47.4559 221.089 48.9379 221.771 50.1825L273.724 145.62L290.15 134.689C290.467 134.478 290.741 134.202 290.956 133.876C291.172 133.55 291.324 133.181 291.405 132.791C291.486 132.4 291.494 131.996 291.427 131.603C291.361 131.209 291.222 130.834 291.018 130.499L236.389 40.4601C235.66 39.2461 234.518 38.388 233.207 38.07C231.897 37.752 230.523 37.9995 229.38 38.7593V38.7593Z" fill="#33A4DB"/>
<path d="M239.661 61.3654L273.615 119.947L271.88 121.11L237.926 62.5292L239.661 61.3654Z" fill="#D9F1FE"/>
<path d="M267.222 154.061C260.15 146.453 260.15 134.118 267.222 126.51C274.294 118.902 285.76 118.902 292.832 126.51C299.904 134.118 299.904 146.453 292.832 154.061C285.76 161.669 274.294 161.669 267.222 154.061Z" fill="#FEE500"/>
<path d="M270.245 150.808C264.843 144.997 264.843 135.574 270.245 129.763C275.648 123.952 284.406 123.952 289.808 129.763C295.21 135.574 295.21 144.997 289.808 150.808C284.406 156.62 275.648 156.62 270.245 150.808Z" fill="#D9F1FE"/>
<path d="M168.628 72.6385L171.453 77.6362C172.592 79.651 174.653 80.5567 176.091 79.6722L229.125 47.4292L221.246 33.4948C220.607 32.3656 219.441 31.8846 218.663 32.4362L169.078 67.2774C167.689 68.2384 167.488 70.6237 168.628 72.6385Z" fill="#33A4DB"/>
<path d="M221.994 56.4646C214.143 56.4646 207.779 49.6183 207.779 41.1729C207.779 32.7276 214.143 25.8812 221.994 25.8812C229.844 25.8812 236.208 32.7276 236.208 41.1729C236.208 49.6183 229.844 56.4646 221.994 56.4646Z" fill="#FEE500"/>
<path d="M211.167 42.1716C210.658 35.7438 215.089 30.089 221.064 29.5413C227.039 28.9937 232.295 33.7605 232.805 40.1883C233.314 46.6161 228.883 52.2709 222.908 52.8186C216.933 53.3662 211.676 48.5994 211.167 42.1716Z" fill="#D9F1FE"/>
<path d="M159.66 74.0617L147.783 64.8368L131.327 86.3694L133.822 89.538L148.701 72.368L157.892 79.6051L159.66 74.0617Z" fill="#00AAFF"/>
<path d="M134.653 63.5136C134.799 63.5886 134.92 63.7108 134.998 63.863C135.076 64.0152 135.109 64.1899 135.09 64.3628L134.022 74.4687C137.518 77.4785 140.534 81.081 142.952 85.1345L152.399 85.0533C152.561 85.0522 152.719 85.1052 152.851 85.2052C152.983 85.3051 153.083 85.4469 153.137 85.6108L156.92 97.1117C156.974 97.2756 156.979 97.4535 156.935 97.6207C156.89 97.7879 156.798 97.936 156.672 98.0444L149.278 104.373C149.768 109.161 149.53 114.002 148.571 118.707L155.31 125.841C155.425 125.963 155.502 126.121 155.53 126.292C155.558 126.463 155.536 126.64 155.466 126.796L150.581 137.807C150.511 137.964 150.398 138.093 150.257 138.178C150.115 138.262 149.953 138.297 149.793 138.277L140.399 137.127C137.601 140.888 134.252 144.132 130.483 146.733L130.559 156.896C130.56 157.07 130.511 157.24 130.418 157.383C130.325 157.525 130.194 157.633 130.041 157.692L119.351 161.76C119.198 161.818 119.033 161.824 118.877 161.776C118.722 161.728 118.584 161.629 118.484 161.493L112.6 153.54C108.15 154.067 103.649 153.81 99.2759 152.779L92.6448 160.029C92.5312 160.153 92.3846 160.235 92.2253 160.265C92.066 160.296 91.9019 160.272 91.7559 160.197L81.5222 154.94C81.3762 154.866 81.2556 154.744 81.1772 154.592C81.0988 154.44 81.0665 154.265 81.0849 154.092L82.1542 143.987C78.6584 140.977 75.6423 137.375 73.2249 133.321L63.7762 133.402C63.6146 133.403 63.4567 133.35 63.3244 133.25C63.1921 133.15 63.0921 133.008 63.0382 132.844L59.2552 121.344C59.2015 121.18 59.1966 121.002 59.2413 120.834C59.2859 120.667 59.378 120.519 59.5045 120.411L66.8977 114.082C66.4077 109.294 66.6463 104.453 67.604 99.7475L60.8657 92.6139C60.7506 92.4919 60.6738 92.3344 60.6458 92.1632C60.6177 91.9921 60.64 91.8158 60.7094 91.6588L65.5944 80.6485C65.6644 80.4916 65.778 80.3621 65.9194 80.2778C66.0608 80.1935 66.2232 80.1586 66.3838 80.178L75.7767 81.3283C78.5746 77.5678 81.9237 74.3233 85.6922 71.7223L85.6168 61.5588C85.6157 61.3848 85.665 61.2147 85.7578 61.0722C85.8507 60.9297 85.9826 60.8219 86.135 60.7637L96.8246 56.6917C96.977 56.6337 97.1424 56.6283 97.2978 56.6761C97.4532 56.724 97.5909 56.8228 97.6916 56.9587L103.574 64.9121C108.024 64.3848 112.525 64.6418 116.898 65.6731L123.525 58.4242C123.638 58.3004 123.785 58.2177 123.944 58.1876C124.103 58.1574 124.267 58.1814 124.413 58.256L134.653 63.5136Z" fill="#FEE500"/>
<path opacity="0.7" d="M119.161 106.313C118.461 103.229 116.676 100.557 114.182 98.8585C111.688 97.1605 108.68 96.569 105.789 97.2083C102.898 97.8476 100.35 99.6679 98.6813 102.287C97.0124 104.905 96.3524 108.118 96.84 111.249C97.3277 114.381 98.9252 117.186 101.296 119.077C103.668 120.967 106.628 121.795 109.554 121.385C112.481 120.976 115.146 119.362 116.989 116.882C118.832 114.402 119.71 111.25 119.437 108.089C119.386 107.491 119.293 106.897 119.161 106.313V106.313ZM99.5986 111.472C99.172 109.608 99.2858 107.649 99.9246 105.856C100.563 104.064 101.697 102.525 103.172 101.446C104.648 100.367 106.395 99.8 108.179 99.8204C109.963 99.8407 111.699 100.448 113.153 101.56C114.607 102.673 115.709 104.237 116.313 106.044C116.916 107.85 116.991 109.812 116.528 111.665C116.065 113.519 115.085 115.175 113.721 116.413C112.357 117.65 110.674 118.409 108.897 118.587C106.812 118.794 104.727 118.191 103.021 116.885C101.315 115.58 100.1 113.659 99.5986 111.472Z" fill="white"/>
<path opacity="0.7" d="M135.212 102.362C134.984 101.358 134.71 100.367 134.39 99.3923V99.3923C134.288 99.0834 134.182 98.7764 134.07 98.4713C133.526 96.9692 132.871 95.5163 132.111 94.1265L132.081 94.07L131.992 93.9101C131.934 93.8066 131.875 93.7031 131.816 93.5995C131.742 93.471 131.633 93.3707 131.503 93.3133C131.373 93.2558 131.23 93.244 131.093 93.2796C131.026 93.2975 130.961 93.3269 130.902 93.3667C130.752 93.4659 130.644 93.6252 130.603 93.8096C130.562 93.994 130.591 94.1884 130.683 94.35C131.68 96.0911 132.501 97.941 133.135 99.8687C136.291 109.464 134.405 119.683 128.972 127.163C125.852 131.465 121.652 134.714 116.869 136.527C116.005 136.857 115.127 137.138 114.236 137.372C107.815 139.039 101.047 138.087 95.2399 134.699C89.433 131.312 84.9991 125.729 82.795 119.03C77.8837 104.092 85.1817 87.6539 99.0606 82.3716C103.611 80.6383 108.514 80.2643 113.247 81.2895C113.342 81.3112 113.441 81.3091 113.536 81.2836C113.683 81.2452 113.814 81.154 113.906 81.025C113.999 80.896 114.047 80.737 114.044 80.5742C114.041 80.4114 113.987 80.2547 113.889 80.1298C113.792 80.0049 113.659 79.9194 113.51 79.8875C108.542 78.8098 103.394 79.2025 98.6167 81.0237C84.0457 86.5694 76.388 103.842 81.542 119.506C83.8557 126.54 88.5105 132.4 94.6069 135.957C100.703 139.513 107.809 140.513 114.55 138.762C115.484 138.517 116.407 138.221 117.314 137.876C123.852 135.387 129.301 130.379 132.607 123.819C135.912 117.26 136.841 109.615 135.212 102.362V102.362Z" fill="white"/>
<path d="M161.771 70.0661L166.969 66.6851C167.082 66.6114 167.229 66.6504 167.298 66.7722L176.751 83.5919C176.82 83.7137 176.784 83.8721 176.67 83.9458L171.473 87.3268C171.359 87.4005 171.212 87.3614 171.144 87.2396L161.69 70.4199C161.622 70.2982 161.658 70.1397 161.771 70.0661Z" fill="#00AAFF"/>
<path d="M162.757 89.3028L164.586 104.938L139.132 110.15L137.743 106.275L158.883 100.461L157.386 88.3148L162.757 89.3028Z" fill="#00AAFF"/>
<path d="M166.591 88.8958C165.577 89.7889 164.398 90.4388 163.133 90.802C161.867 91.1652 160.544 91.2333 159.251 91.0018C157.959 90.7703 156.728 90.2444 155.64 89.4595C154.552 88.6745 153.632 87.6486 152.943 86.4503C152.253 85.2521 151.809 83.9092 151.641 82.5115C151.473 81.1138 151.584 79.6937 151.968 78.3461C152.351 76.9985 152.998 75.7546 153.865 74.6976C154.731 73.6407 155.797 72.795 156.992 72.2173L166.591 88.8958Z" fill="#33A4DB"/>
<path d="M171.817 85.4249L173.319 88.1054C173.59 88.5889 173.42 89.2334 172.939 89.5451L168.319 92.5421C167.839 92.8537 167.226 92.715 166.958 92.2315L154.979 70.8624C154.708 70.379 154.879 69.7333 155.36 69.4216L159.979 66.4246C160.46 66.1129 161.073 66.2517 161.34 66.7351L162.717 69.191L171.817 85.4249Z" fill="#00AAFF"/>
<g opacity="0.3">
<path opacity="0.3" d="M58.9427 223.247C58.9462 223.037 58.8893 222.832 58.7798 222.659C58.5065 222.225 58.2331 221.776 57.9773 221.328C57.9124 221.213 57.827 221.114 57.7261 221.034C57.6251 220.955 57.5105 220.898 57.389 220.867C57.2675 220.836 57.1415 220.831 57.0181 220.852C56.8948 220.874 56.7767 220.921 56.6705 220.992C56.5643 221.063 56.4723 221.156 56.3996 221.265C56.327 221.374 56.2752 221.498 56.2473 221.629C56.2193 221.76 56.2158 221.896 56.2369 222.028C56.258 222.161 56.3033 222.288 56.3701 222.401C56.6412 222.872 56.9255 223.342 57.2131 223.801C57.3263 223.98 57.4898 224.116 57.6796 224.188C57.8695 224.26 58.0759 224.266 58.2688 224.203C58.4616 224.141 58.631 224.014 58.7522 223.841C58.8734 223.668 58.9402 223.458 58.9427 223.241V223.247Z" fill="url(#paint0_linear_842_6710)"/>
</g>
<path d="M108.874 179.875C108.945 179.938 108.995 180.024 109.018 180.119C109.042 180.215 109.037 180.316 109.005 180.409L107.087 185.819C108.619 188.01 109.808 190.455 110.608 193.059L115.829 194.45C115.919 194.474 115.999 194.527 116.059 194.602C116.119 194.678 116.155 194.771 116.164 194.87L116.746 201.787C116.755 201.886 116.735 201.985 116.689 202.07C116.642 202.156 116.572 202.223 116.487 202.263L111.578 204.629C111.22 207.343 110.452 209.977 109.305 212.426L112.084 217.385C112.132 217.469 112.154 217.568 112.146 217.667C112.139 217.765 112.104 217.859 112.045 217.935L107.905 223.263C107.845 223.339 107.766 223.393 107.677 223.418C107.587 223.443 107.493 223.438 107.407 223.403L102.378 221.34C100.341 222.988 98.068 224.268 95.6483 225.129L94.3538 230.745C94.3324 230.841 94.2833 230.928 94.2134 230.993C94.1435 231.057 94.0564 231.097 93.9645 231.105L87.5335 231.722C87.4418 231.732 87.3496 231.71 87.2701 231.66C87.1906 231.61 87.1278 231.534 87.0907 231.444L84.892 226.163C82.3688 225.777 79.921 224.951 77.6453 223.717L73.0358 226.707C72.9568 226.758 72.8649 226.781 72.7729 226.774C72.681 226.766 72.5936 226.727 72.523 226.664L67.5702 222.209C67.4992 222.146 67.4484 222.061 67.4253 221.965C67.4021 221.869 67.4077 221.768 67.4412 221.675L69.3578 216.265C67.8256 214.073 66.6361 211.628 65.8362 209.024L60.6155 207.633C60.5269 207.608 60.4475 207.555 60.3887 207.48C60.3299 207.404 60.2945 207.311 60.2875 207.213L59.7124 200.296C59.7057 200.198 59.727 200.1 59.7736 200.016C59.8201 199.932 59.8896 199.865 59.9726 199.825L64.8806 197.46C65.2394 194.745 66.0071 192.112 67.1536 189.663L64.3755 184.705C64.3278 184.62 64.306 184.521 64.3131 184.423C64.3201 184.324 64.3557 184.23 64.4148 184.154L68.5553 178.825C68.6139 178.749 68.6935 178.694 68.7826 178.67C68.8717 178.645 68.9659 178.651 69.0517 178.687L74.081 180.748C76.1178 179.1 78.3908 177.821 80.8106 176.96L82.104 171.344C82.1266 171.248 82.1764 171.163 82.2464 171.1C82.3164 171.036 82.4031 170.998 82.4943 170.991L88.9242 170.372C89.0161 170.363 89.1083 170.384 89.1879 170.435C89.2674 170.485 89.3301 170.561 89.367 170.652L91.5657 175.932C94.0891 176.318 96.5372 177.144 98.8135 178.377L103.423 175.389C103.502 175.337 103.593 175.313 103.685 175.321C103.777 175.328 103.864 175.367 103.935 175.431L108.874 179.875Z" fill="#FEE500"/>
<path opacity="0.7" d="M94.7122 201.12C94.7317 199.312 94.0989 197.567 92.9467 196.251C91.7945 194.934 90.2127 194.15 88.5341 194.063C86.8555 193.976 85.2107 194.592 83.9458 195.782C82.6809 196.973 81.8944 198.644 81.7516 200.446C81.6089 202.247 82.121 204.038 83.1804 205.441C84.2397 206.845 85.7637 207.752 87.4319 207.972C89.1 208.191 90.7823 207.706 92.125 206.619C93.4677 205.532 94.3661 203.926 94.6313 202.141C94.6809 201.803 94.7079 201.462 94.7122 201.12ZM83.2475 200.99C83.2498 200.725 83.2706 200.461 83.3098 200.199C83.5131 198.834 84.2005 197.607 85.2274 196.776C86.2543 195.945 87.5408 195.574 88.8164 195.742C90.092 195.91 91.2574 196.603 92.0676 197.676C92.8779 198.749 93.2699 200.119 93.1613 201.496C93.0527 202.874 92.4519 204.152 91.4852 205.063C90.5185 205.974 89.2612 206.447 87.9775 206.381C86.6939 206.315 85.4838 205.717 84.6017 204.712C83.7196 203.706 83.2342 202.372 83.2475 200.99V200.99Z" fill="white"/>
<path opacity="0.7" d="M104.082 201.382C104.089 200.794 104.068 200.205 104.019 199.618V199.618C104.004 199.432 103.985 199.248 103.964 199.062C103.861 198.151 103.691 197.25 103.455 196.368L103.445 196.333C103.436 196.299 103.426 196.265 103.418 196.231L103.362 196.033C103.338 195.951 103.291 195.879 103.227 195.828C103.163 195.776 103.085 195.748 103.005 195.747C102.966 195.746 102.926 195.752 102.887 195.765C102.792 195.797 102.712 195.869 102.665 195.965C102.619 196.061 102.609 196.172 102.639 196.275C103.561 199.47 103.551 202.891 102.612 206.079C101.672 209.267 99.8475 212.069 97.3835 214.109C95.0981 216.006 92.3553 217.159 89.4798 217.432C88.96 217.482 88.4382 217.503 87.9163 217.496C84.156 217.44 80.5484 215.887 77.7912 213.135C75.034 210.384 73.323 206.631 72.9889 202.601C72.2433 193.617 78.4272 185.664 86.7738 184.86C89.5111 184.598 92.2634 185.137 94.7387 186.421C94.789 186.447 94.8438 186.461 94.8995 186.462C94.9857 186.464 95.0699 186.434 95.138 186.377C95.206 186.32 95.2539 186.239 95.2737 186.149C95.2935 186.058 95.284 185.964 95.2467 185.88C95.2095 185.796 95.1467 185.729 95.0689 185.688C92.4705 184.339 89.5808 183.773 86.7071 184.05C77.944 184.892 71.4517 193.249 72.2345 202.674C72.587 206.904 74.3839 210.843 77.2783 213.731C80.1727 216.619 83.9592 218.251 87.9065 218.311C88.4531 218.318 88.9998 218.295 89.5465 218.243C93.4798 217.865 97.1433 215.933 99.829 212.818C102.515 209.704 104.032 205.629 104.088 201.381L104.082 201.382Z" fill="white"/>
<path d="M77.759 228.833L78.052 226.112C72.1272 225.103 67.9506 221.29 66.1805 220.193C64.3448 222.749 63.0864 225.066 61.7372 228.103C69.0866 231.564 77.759 228.833 77.759 228.833Z" fill="url(#paint1_linear_842_6710)"/>
<path d="M8.64472 312.215C8.64472 312.215 7.55137 314.075 7.27257 319.28C7.26633 319.394 7.28193 319.51 7.3184 319.618C7.35487 319.726 7.41145 319.825 7.48469 319.909C7.55794 319.993 7.64632 320.06 7.74444 320.106C7.84256 320.152 7.94835 320.176 8.05539 320.177H16.6294C16.7095 320.177 16.7885 320.157 16.8598 320.118C16.9311 320.078 16.9928 320.022 17.0397 319.952C17.0866 319.882 17.1173 319.801 17.1294 319.716C17.1416 319.631 17.1347 319.544 17.1094 319.462C16.6075 317.862 15.0878 313.962 11.6984 311.734L8.64472 312.215Z" fill="#2F3139"/>
<path d="M8.27194 308.689L8.75737 313.063C8.77695 313.247 8.85336 313.418 8.97433 313.549C9.09531 313.681 9.25379 313.764 9.42429 313.787C10.0266 313.868 10.6363 313.861 11.237 313.768C11.5289 313.712 11.793 313.547 11.9825 313.302C12.172 313.057 12.2747 312.747 12.2724 312.428V308.205L8.27194 308.689Z" fill="url(#paint2_linear_842_6710)"/>
<path d="M29.8566 311.734C29.8566 311.734 28.2166 314.477 28.2516 318.244C28.2602 318.672 28.4248 319.079 28.7097 319.377C28.9946 319.675 29.3771 319.841 29.7746 319.838H43.0905C43.2262 319.839 43.3585 319.792 43.4681 319.706C43.5777 319.62 43.6588 319.498 43.6997 319.359C43.7405 319.22 43.739 319.07 43.6953 318.932C43.6516 318.794 43.568 318.674 43.4567 318.59C40.9366 316.687 35.9848 313.132 32.4019 311.734H29.8566Z" fill="#2F3139"/>
<path d="M28.4854 307.009L29.5197 312.412C29.5461 312.556 29.5988 312.693 29.6747 312.816C29.7507 312.938 29.8484 313.043 29.9622 313.124C30.0761 313.206 30.2038 313.262 30.338 313.29C30.4723 313.318 30.6103 313.318 30.7442 313.288C31.1598 313.186 31.556 313.008 31.9152 312.761C32.1149 312.625 32.2725 312.429 32.3677 312.196C32.463 311.964 32.4916 311.706 32.4498 311.456L31.3795 304.91L28.4854 307.009Z" fill="url(#paint3_linear_842_6710)"/>
<path d="M10.1721 231.9C10.1721 231.9 6.57503 235.311 5.89826 239.415C5.22148 243.518 7.81598 310.222 7.81598 310.222C7.81598 310.222 11.412 310.866 13.2663 309.657C13.2663 309.657 15.465 266.373 17.1367 256.367C17.1367 256.367 25.9009 301.207 28.3292 309.309C28.3292 309.309 31.794 309.763 32.9114 309.054C32.9114 309.054 30.6154 250.928 27.7312 240.599L10.1721 231.9Z" fill="#2F3139"/>
<path d="M45.662 193.366C30.5225 192.013 26.5656 195.384 26.5656 195.384L33.8407 207.734C33.8407 207.734 48.7167 207.418 59.3757 198.58C57.3815 196.268 55.9951 193.715 55.1117 191.726C52.1311 193.085 48.8887 193.648 45.662 193.366Z" fill="#37BCFF"/>
<path d="M69.3701 169.453C69.3656 169.342 69.3265 169.235 69.259 169.15C69.1915 169.065 69.0994 169.007 68.9976 168.985C68.8958 168.963 68.79 168.978 68.6972 169.028C68.6044 169.079 68.5299 169.161 68.4856 169.262L66.5536 173.697C66.1808 174.554 66.0614 175.514 66.2114 176.446L66.8893 179.027C66.99 179.648 66.9667 180.286 66.821 180.897C66.6753 181.509 66.4105 182.08 66.0441 182.573C64.2696 184.96 60.4889 189.319 55.1107 191.726C55.9985 193.715 57.3849 196.268 59.3748 198.58C63.2856 195.337 66.6301 190.948 68.4626 185.005C68.8894 184.864 69.261 184.575 69.5194 184.183C69.7778 183.791 69.9087 183.319 69.8916 182.839L69.3701 169.453Z" fill="url(#paint4_linear_842_6710)"/>
<path d="M50.6454 200.524C45.3154 194.345 35.1637 191.554 29.2859 190.409C28.04 190.162 26.7532 190.396 25.6514 191.069C24.5496 191.741 23.7031 192.81 23.2605 194.087C20.6157 201.732 13.4205 221.635 12.0276 225.056C10.8839 227.862 9.68889 230.602 8.93012 232.315C8.7116 232.806 8.68282 233.37 8.85004 233.884C9.01725 234.397 9.36686 234.819 9.8223 235.056C14.7675 237.62 23.6651 240.522 27.2731 241.653C27.4577 241.711 27.6523 241.722 27.8415 241.685C28.0307 241.648 28.2092 241.564 28.3629 241.439C28.5166 241.315 28.6412 241.154 28.7269 240.969C28.8125 240.783 28.8568 240.579 28.8562 240.372C28.8547 239.619 29.0437 238.879 29.4029 238.232L43.0697 213.74C51.5857 223.896 56.8162 227.972 62.5005 228.577C64.3767 226.523 67.4588 222.174 66.4497 220.109C59.1702 216.01 50.6454 200.524 50.6454 200.524Z" fill="#37BCFF"/>
<path d="M75.637 228.475L81.6504 235.105L90.4441 237.515C90.1084 236.117 84.4395 232.494 84.4395 232.494C84.4395 232.494 80.2607 226.725 78.9421 225.376C77.8488 224.256 76.5084 226.112 76.0863 226.773C76 226.908 75.9529 226.993 75.9529 226.993L75.637 228.475Z" fill="url(#paint5_linear_842_6710)"/>
<path d="M37.37 179.061L32.8304 190.979C32.8304 190.979 38.0468 194.86 42.2441 194.493L44.5095 183.777L37.37 179.061Z" fill="url(#paint6_linear_842_6710)"/>
<path d="M45.0398 170.937C45.1437 171.094 48.3198 183.455 48.3198 183.455L41.7205 185.258L37.088 174.025C37.088 174.025 43.2981 168.283 45.0398 170.937Z" fill="url(#paint7_linear_842_6710)"/>
<path d="M39.5775 175.732L41.5859 181.848C41.6125 181.926 41.6493 182 41.6953 182.067C41.9686 182.485 43.0073 183.843 44.2318 182.619C45.3459 181.508 46.3781 180.512 47.3314 180.331C47.5377 180.292 47.7501 180.337 47.9272 180.457C48.1043 180.577 48.2334 180.764 48.2892 180.981C48.5779 182.105 49.1857 184.649 49.3989 186.945C49.4191 187.17 49.3602 187.395 49.2336 187.575C49.1071 187.756 48.9223 187.879 48.7156 187.92C47.4266 188.183 44.6943 188.657 42.4125 188.483C42.2612 188.472 42.1153 188.418 41.9904 188.325C41.8655 188.233 41.7662 188.106 41.7029 187.957C41.0742 186.48 39.1478 181.995 38.4316 180.836C37.7592 179.746 36.1105 179.777 35.4184 179.843C35.3067 179.853 35.1941 179.839 35.0876 179.802C34.981 179.764 34.8827 179.704 34.7985 179.624C34.1939 179.054 33.0426 177.597 34.6618 175.86C34.7428 175.774 34.8066 175.67 34.8494 175.556C34.8921 175.442 34.913 175.32 34.9107 175.198C34.9083 175.075 34.8828 174.954 34.8357 174.842C34.7886 174.73 34.7209 174.629 34.6367 174.546C33.9413 173.841 33.1978 172.596 34.3557 171.048C35.5332 169.476 37.089 169.726 38.0402 170.1C38.2265 170.172 38.4302 170.171 38.6156 170.097C38.8011 170.023 38.9566 169.882 39.0548 169.697C39.174 169.482 39.3828 169.318 39.7426 169.351C39.8579 169.36 39.9736 169.342 40.0822 169.299C40.1909 169.257 40.2901 169.19 40.3735 169.104C40.4568 169.018 40.5226 168.914 40.5664 168.799C40.6103 168.684 40.6313 168.56 40.6282 168.436C40.6107 167.428 40.9463 166.155 42.571 165.613C45.4542 164.648 47.2516 167.643 47.4298 169.879C47.6081 172.115 44.4264 172.97 42.5568 172.82C41.1355 172.702 40.0782 174.221 39.654 174.955C39.5877 175.07 39.5464 175.199 39.5331 175.334C39.5199 175.468 39.535 175.605 39.5775 175.732V175.732Z" fill="#2F3139"/>
<path d="M39.1772 183.057C39.1772 183.057 38.7115 179.176 37.2093 178.986C35.707 178.797 34.2474 180.123 35.7398 182.301C37.5974 185.015 39.1772 183.057 39.1772 183.057Z" fill="url(#paint8_linear_842_6710)"/>
</g>
<defs>
<linearGradient id="paint0_linear_842_6710" x1="17377.1" y1="61910.2" x2="16259.3" y2="59784.6" gradientUnits="userSpaceOnUse">
<stop stop-color="#FF928E"/>
<stop offset="1" stop-color="#FE7062"/>
</linearGradient>
<linearGradient id="paint1_linear_842_6710" x1="101.422" y1="221.98" x2="50.5405" y2="228.477" gradientUnits="userSpaceOnUse">
<stop stop-color="#FEBBBA"/>
<stop offset="1" stop-color="#FF928E"/>
</linearGradient>
<linearGradient id="paint2_linear_842_6710" x1="-12678.9" y1="17975.6" x2="-12532.5" y2="17975.6" gradientUnits="userSpaceOnUse">
<stop stop-color="#FEBBBA"/>
<stop offset="1" stop-color="#FF928E"/>
</linearGradient>
<linearGradient id="paint3_linear_842_6710" x1="-11904.3" y1="26491.2" x2="-11759.3" y2="26491.2" gradientUnits="userSpaceOnUse">
<stop stop-color="#FEBBBA"/>
<stop offset="1" stop-color="#FF928E"/>
</linearGradient>
<linearGradient id="paint4_linear_842_6710" x1="-42517.5" y1="60902" x2="-40518.1" y2="60902" gradientUnits="userSpaceOnUse">
<stop stop-color="#FEBBBA"/>
<stop offset="1" stop-color="#FF928E"/>
</linearGradient>
<linearGradient id="paint5_linear_842_6710" x1="-13383.1" y1="37710.2" x2="-9910.88" y2="42831" gradientUnits="userSpaceOnUse">
<stop stop-color="#FEBBBA"/>
<stop offset="1" stop-color="#FF928E"/>
</linearGradient>
<linearGradient id="paint6_linear_842_6710" x1="-33690.3" y1="28948.8" x2="-38631.9" y2="35809" gradientUnits="userSpaceOnUse">
<stop stop-color="#FEBBBA"/>
<stop offset="1" stop-color="#FF928E"/>
</linearGradient>
<linearGradient id="paint7_linear_842_6710" x1="-7359.77" y1="46127.2" x2="-7783.83" y2="48950.2" gradientUnits="userSpaceOnUse">
<stop stop-color="#FEBBBA"/>
<stop offset="1" stop-color="#FF928E"/>
</linearGradient>
<linearGradient id="paint8_linear_842_6710" x1="-3362.97" y1="16328.8" x2="-3222.47" y2="15687.3" gradientUnits="userSpaceOnUse">
<stop stop-color="#FEBBBA"/>
<stop offset="1" stop-color="#FF928E"/>
</linearGradient>
<clipPath id="clip0_842_6710">
<rect width="302.661" height="324.59" fill="white" transform="matrix(-1 0 0 1 307 -4)"/>
</clipPath>
</defs>
</svg>
